<svg width="435" height="254" viewBox="0 0 435 254" fill="none" xmlns="http://www.w3.org/2000/svg">
<g clip-path="url(#clip0_47_490)">
<path d="M333.046 251.128C327.477 246.532 324.094 239.271 324.981 232.203C325.869 225.135 331.363 218.637 338.491 217.136C345.618 215.635 353.743 219.79 355.908 226.59C357.099 213.48 358.472 199.821 365.608 188.657C372.07 178.548 383.263 171.314 395.393 170.02C407.523 168.726 420.294 173.614 427.859 182.964C435.424 192.315 437.277 205.909 431.978 216.644C428.075 224.552 420.884 230.438 413.35 235.226C389.004 250.568 359.804 256.807 331.123 252.795L333.046 251.128Z" fill="#00BFA6"/>
<path d="M415.864 173.884C405.855 181.846 396.673 190.751 388.451 200.47C375.583 215.628 365.17 232.623 357.575 250.863C357.019 252.194 359.231 252.773 359.781 251.457C372.208 221.814 392.046 195.686 417.482 175.464C418.624 174.556 416.997 172.984 415.864 173.884Z" fill="white"/>
<path d="M140.034 249.879C147.683 243.566 152.329 233.594 151.111 223.886C149.892 214.178 142.345 205.253 132.556 203.192C122.766 201.13 111.607 206.837 108.634 216.176C106.997 198.17 105.112 179.409 95.3095 164.075C86.4339 150.19 71.0611 140.255 54.4006 138.478C37.74 136.7 20.1986 143.413 9.80803 156.256C-0.582548 169.099 -3.12664 187.771 4.15065 202.516C9.51158 213.378 19.3883 221.461 29.7366 228.038C62.7514 249.019 103.706 257.77 142.675 252.168" fill="#00BFA6"/>
<path d="M26.2833 143.785C40.0303 154.721 52.6418 166.952 63.9352 180.301C75.2305 193.636 85.1747 208.01 93.6283 223.221C98.3534 231.753 102.598 240.531 106.343 249.516C107.107 251.343 104.068 252.139 103.313 250.332C96.6794 234.492 88.472 219.326 78.8088 205.05C69.1926 190.826 58.1862 177.547 45.9444 165.398C39.0204 158.531 31.715 152.04 24.0613 145.955C22.4925 144.708 24.7275 142.548 26.2833 143.785L26.2833 143.785Z" fill="white"/>
<path d="M312.25 253.444H129.75V70.5639C129.75 31.6548 162.161 0 202 0H240C279.839 0 312.25 31.6548 312.25 70.5639V253.444Z" fill="#F2F2F2"/>
<path d="M274.25 253.444H129.75V70.5639C129.71 55.6548 134.544 41.1225 143.548 29.0829C143.88 28.6411 144.211 28.205 144.552 27.7736C148.907 22.1949 154.09 17.2819 159.929 13.1966C160.259 12.9622 160.59 12.7319 160.926 12.5016C165.812 9.1992 171.098 6.49957 176.662 4.46413C176.993 4.34181 177.329 4.21925 177.666 4.10169C182.698 2.34764 187.915 1.14613 193.22 0.519329C193.549 0.475453 193.886 0.441119 194.224 0.406784C199.394 -0.133052 204.607 -0.133052 209.777 0.406784C210.114 0.441119 210.451 0.475449 210.784 0.519799C216.087 1.14664 221.303 2.34801 226.334 4.10171C226.671 4.21927 227.007 4.34182 227.339 4.46439C232.834 6.47414 238.058 9.13349 242.892 12.3831C243.228 12.6084 243.564 12.8387 243.895 13.0691C247.168 15.3509 250.242 17.893 253.087 20.6695C255.368 22.8965 257.493 25.2703 259.449 27.7751C259.789 28.205 260.12 28.6411 260.452 29.0822C269.456 41.122 274.29 55.6545 274.25 70.5639V253.444Z" fill="#CCCCCC"/>
<path d="M262.5 171.648C266.918 171.648 270.5 168.15 270.5 163.835C270.5 159.52 266.918 156.022 262.5 156.022C258.082 156.022 254.5 159.52 254.5 163.835C254.5 168.15 258.082 171.648 262.5 171.648Z" fill="#297FFF"/>
<path d="M297.299 247.966H291.169L288.253 224.874L297.3 224.875L297.299 247.966Z" fill="#FFB8B8"/>
<path d="M286.791 246.256H298.613V253.525H279.347C279.347 252.571 279.54 251.625 279.914 250.743C280.288 249.861 280.836 249.06 281.528 248.385C282.219 247.71 283.039 247.174 283.942 246.809C284.845 246.444 285.813 246.256 286.791 246.256Z" fill="#2F2E41"/>
<path d="M327.799 247.966H321.669L318.753 224.874L327.8 224.875L327.799 247.966Z" fill="#FFB8B8"/>
<path d="M317.291 246.256H329.113V253.525H309.847C309.847 252.571 310.04 251.625 310.414 250.743C310.788 249.861 311.336 249.06 312.028 248.385C312.719 247.71 313.539 247.174 314.442 246.809C315.345 246.444 316.313 246.256 317.291 246.256Z" fill="#2F2E41"/>
<path d="M266.549 165.383C266.108 164.748 265.815 164.027 265.69 163.27C265.565 162.513 265.612 161.738 265.827 161C266.042 160.263 266.42 159.58 266.934 159.001C267.449 158.421 268.087 157.959 268.804 157.646L289.642 101.553L299.896 107.018L276.103 160.623C276.561 161.834 276.548 163.168 276.066 164.37C275.585 165.573 274.669 166.561 273.491 167.148C272.313 167.734 270.956 167.879 269.677 167.554C268.397 167.228 267.284 166.456 266.549 165.383Z" fill="#FFB8B8"/>
<path d="M324.668 175.923C323.987 175.542 323.4 175.019 322.948 174.392C322.496 173.765 322.19 173.048 322.052 172.293C321.914 171.538 321.947 170.763 322.149 170.022C322.352 169.281 322.718 168.592 323.222 168.004L316.766 108.667L328.435 109.188L331.118 167.553C332.073 168.446 332.66 169.65 332.767 170.937C332.874 172.224 332.495 173.505 331.7 174.536C330.904 175.568 329.75 176.279 328.454 176.535C327.158 176.79 325.811 176.573 324.668 175.923Z" fill="#FFB8B8"/>
<path d="M306.053 91.1635C312.835 91.1635 318.333 85.7936 318.333 79.1695C318.333 72.5455 312.835 67.1756 306.053 67.1756C299.271 67.1756 293.772 72.5455 293.772 79.1695C293.772 85.7936 299.271 91.1635 306.053 91.1635Z" fill="#FFB8B8"/>
<path d="M324.59 162.428H287.566L287.611 162.147C287.677 161.726 294.209 119.936 289.392 106.264C288.908 104.921 288.951 103.45 289.511 102.135C290.071 100.82 291.11 99.7544 292.427 99.1425H292.427C299.313 95.9755 312.53 92.0758 323.687 101.54C325.328 102.955 326.61 104.725 327.431 106.708C328.252 108.69 328.589 110.833 328.416 112.965L324.59 162.428Z" fill="#297FFF"/>
<path d="M294.677 126.112L278.009 122.809L285.822 104.726C286.289 102.975 287.449 101.476 289.047 100.559C290.644 99.6413 292.549 99.3801 294.344 99.8326C296.138 100.285 297.675 101.414 298.619 102.972C299.562 104.53 299.834 106.39 299.375 108.143L294.677 126.112Z" fill="#297FFF"/>
<path d="M316.025 132.244L315.023 109.809C314.263 105.592 316.735 101.605 320.537 100.954C324.339 100.304 328.053 103.229 328.816 107.478L332.582 128.441L316.025 132.244Z" fill="#297FFF"/>
<path d="M323.358 159.742C329.315 181.901 329.965 210.074 328.358 240.805L320.358 239.829L305.858 181.229L297.858 240.805L288.858 240.317C286.169 208.073 283.551 180.391 287.858 162.184L323.358 159.742Z" fill="#2F2E41"/>
<path d="M314.144 88.4388C311.853 90.8222 307.599 89.5427 307.3 86.2866C307.277 86.0338 307.279 85.7794 307.305 85.5269C307.46 84.0846 308.313 82.7751 308.108 81.2523C308.062 80.8732 307.917 80.5121 307.688 80.2029C305.863 77.8153 301.577 81.2708 299.854 79.1094C298.798 77.784 300.04 75.6973 299.229 74.216C298.159 72.261 294.989 73.2254 293.002 72.1547C290.791 70.9634 290.923 67.6498 292.378 65.6342C294.154 63.1761 297.266 61.8645 300.34 61.6755C303.414 61.4864 306.467 62.298 309.336 63.3902C312.597 64.6312 315.83 66.3463 317.837 69.1464C320.277 72.5517 320.512 77.1296 319.291 81.1114C318.549 83.5336 316.015 86.4924 314.144 88.4388Z" fill="#2F2E41"/>
<path d="M419.991 253.758H50.8439C50.6863 253.758 50.5353 253.696 50.424 253.587C50.3127 253.478 50.2502 253.331 50.2502 253.177C50.2502 253.023 50.3127 252.875 50.424 252.766C50.5353 252.657 50.6863 252.596 50.8439 252.595H419.991C420.148 252.596 420.299 252.657 420.411 252.766C420.522 252.875 420.585 253.023 420.585 253.177C420.585 253.331 420.522 253.478 420.411 253.587C420.299 253.696 420.148 253.758 419.991 253.758Z" fill="#3F3D56"/>
<path d="M234.5 200.46H169.5C168.644 200.465 167.821 200.137 167.212 199.55C166.603 198.963 166.257 198.163 166.25 197.327V55.6284C166.257 54.7924 166.603 53.993 167.212 53.4057C167.821 52.8184 168.644 52.4911 169.5 52.4956H234.5C235.356 52.4911 236.179 52.8184 236.788 53.4057C237.398 53.993 237.743 54.7924 237.75 55.6284V197.327C237.743 198.163 237.398 198.963 236.788 199.55C236.179 200.137 235.356 200.465 234.5 200.46Z" fill="white"/>
<path d="M237.75 98.3449H166.25V99.3216H237.75V98.3449Z" fill="#CCCCCC"/>
<path d="M238 154.069H166.5V155.045H238V154.069Z" fill="#CCCCCC"/>
<path d="M189.75 52.4956H188.75V200.948H189.75V52.4956Z" fill="#CCCCCC"/>
<path d="M214.75 52.4956H213.75V200.948H214.75V52.4956Z" fill="#CCCCCC"/>
</g>
<defs>
<clipPath id="clip0_47_490">
<rect width="435" height="254" fill="white"/>
</clipPath>
</defs>
</svg>
