<svg width="300" height="300" viewBox="0 0 300 300" fill="none" xmlns="http://www.w3.org/2000/svg">
<path d="M15.0892 228.404C17.4487 204.381 31.7095 180.402 54.4001 172.014C46.0155 196.895 46.7242 223.932 56.4008 248.342C60.1669 257.743 65.3369 267.807 62.2779 277.459C60.3746 283.465 55.4568 288.151 49.9011 291.145C44.345 294.139 38.1319 295.658 31.9962 297.149L30.808 298.182C20.4358 276.374 12.7297 252.427 15.0892 228.404Z" fill="#F0F0F0"/>
<path d="M54.6391 172.461C41.8276 187.544 33.7641 206.808 32.3543 226.556C32.0495 230.826 32.1128 235.183 33.1559 239.357C34.2039 243.417 36.3228 247.123 39.2924 250.09C42.0056 252.912 45.1086 255.486 47.0868 258.916C49.1719 262.533 49.3573 266.698 48.0973 270.63C46.5556 275.44 43.3731 279.411 40.1256 283.186C36.5198 287.378 32.708 291.675 31.2717 297.145C31.0976 297.808 30.0768 297.5 30.2505 296.838C32.7495 287.321 41.8019 281.716 45.9636 273.094C47.9054 269.071 48.6436 264.44 46.6163 260.299C44.8435 256.679 41.646 254.022 38.8741 251.189C35.9635 248.213 33.7055 244.924 32.4818 240.916C31.23 236.817 30.9958 232.452 31.1898 228.194C31.702 218.54 33.7328 209.027 37.2076 200.003C41.1162 189.681 46.7661 180.103 53.9128 171.682C54.3554 171.161 55.0788 171.943 54.6391 172.461L54.6391 172.461Z" fill="white"/>
<path d="M32.473 220.113C29.1576 219.401 26.204 217.536 24.1395 214.852C22.0751 212.169 21.0343 208.84 21.203 205.461C21.2112 205.324 21.2726 205.195 21.3743 205.101C21.4761 205.008 21.6103 204.957 21.7485 204.961C21.8868 204.964 22.0184 205.021 22.1156 205.119C22.2128 205.217 22.268 205.349 22.2695 205.487C22.1066 208.633 23.0764 211.733 25.0039 214.228C26.9314 216.724 29.6897 218.449 32.7809 219.094C33.4525 219.235 33.1408 220.253 32.473 220.113Z" fill="white"/>
<path d="M37.7277 248.84C43.5854 245.141 47.8303 239.376 49.616 232.695C49.7923 232.032 50.8133 232.34 50.6371 233.002C48.7659 239.952 44.3362 245.942 38.2321 249.777C37.65 250.143 37.1488 249.203 37.7277 248.84Z" fill="white"/>
<path d="M42.1317 190.663C43.3569 191.205 44.698 191.435 46.0344 191.333C47.3708 191.23 48.6608 190.798 49.7885 190.075C50.3656 189.703 50.8662 190.643 50.2928 191.013C49.0432 191.805 47.618 192.281 46.1417 192.397C44.6653 192.514 43.1829 192.268 41.8238 191.681C41.691 191.637 41.5803 191.543 41.514 191.42C41.4478 191.297 41.431 191.154 41.4671 191.018C41.5086 190.884 41.6016 190.771 41.7261 190.704C41.8505 190.638 41.9962 190.623 42.1316 190.663H42.1317Z" fill="white"/>
<path d="M125.303 212.968C124.949 213.211 124.596 213.453 124.242 213.705C119.503 216.993 115.039 220.659 110.896 224.668C110.571 224.973 110.245 225.287 109.93 225.601C100.05 235.365 92.0735 246.874 86.406 259.543C84.1553 264.587 82.2926 269.793 80.834 275.119C78.82 282.473 77.2229 290.607 73.0146 296.689C72.5827 297.329 72.1115 297.941 71.6037 298.522L32.164 299.548C32.0732 299.505 31.9822 299.472 31.8909 299.429L30.3181 299.542C30.3741 299.262 30.4382 298.973 30.4942 298.693C30.526 298.531 30.5666 298.368 30.5984 298.205C30.6224 298.097 30.6469 297.989 30.6623 297.889C30.6701 297.853 30.6784 297.817 30.6865 297.79C30.7019 297.691 30.7268 297.6 30.7425 297.51C31.0964 295.893 31.4622 294.276 31.8401 292.658C31.8399 292.649 31.8399 292.649 31.8485 292.64C34.7594 280.323 38.7268 268.139 44.422 256.944C44.5935 256.607 44.7643 256.261 44.9538 255.924C47.549 250.892 50.5522 246.079 53.9334 241.535C55.7929 239.053 57.7771 236.666 59.8786 234.384C65.3197 228.498 71.6552 223.502 78.6528 219.579C92.6037 211.761 108.906 208.481 124.142 212.639C124.532 212.745 124.913 212.852 125.303 212.968Z" fill="#F0F0F0"/>
<path d="M125.228 213.47C105.894 217.819 87.8285 228.357 74.7827 243.278C71.9623 246.504 69.3826 250.022 67.6963 253.98C66.0824 257.852 65.5371 262.083 66.1173 266.236C66.5803 270.118 67.5046 274.036 67.0133 277.964C66.4954 282.103 64.1291 285.541 60.75 287.923C56.6156 290.838 51.6777 292.097 46.8059 293.161C41.3968 294.343 35.7596 295.485 31.3109 298.99C30.7719 299.414 30.1428 298.555 30.681 298.131C38.4209 292.033 49.0316 292.994 57.5585 288.61C61.5373 286.564 64.9221 283.309 65.8027 278.786C66.5728 274.83 65.6231 270.789 65.1203 266.862C64.5923 262.738 64.7746 258.756 66.2167 254.821C67.6918 250.796 70.139 247.171 72.8644 243.887C79.1003 236.487 86.4639 230.11 94.6855 224.992C104.036 219.098 114.329 214.843 125.118 212.411C125.786 212.261 125.891 213.32 125.228 213.47H125.228Z" fill="white"/>
<path d="M78.7667 238.205C76.5494 235.646 75.3165 232.383 75.2881 229C75.2597 225.618 76.4377 222.335 78.6118 219.739C79.0535 219.215 79.8903 219.875 79.448 220.4C77.4191 222.813 76.3221 225.871 76.3549 229.021C76.3878 232.171 77.5484 235.206 79.6273 237.577C80.0785 238.093 79.2153 238.718 78.7667 238.205Z" fill="white"/>
<path d="M65.6224 264.298C72.532 264.863 79.401 262.809 84.8599 258.546C85.4004 258.123 86.0297 258.982 85.4899 259.405C79.8009 263.83 72.6483 265.953 65.4593 265.349C64.7742 265.291 64.941 264.24 65.6224 264.298H65.6224Z" fill="white"/>
<path d="M104.254 220.492C104.905 221.66 105.837 222.649 106.966 223.37C108.095 224.091 109.386 224.521 110.723 224.621C111.408 224.67 111.241 225.721 110.56 225.672C109.083 225.555 107.658 225.078 106.409 224.285C105.16 223.491 104.125 222.405 103.394 221.12C103.315 221.005 103.283 220.864 103.304 220.725C103.326 220.587 103.399 220.463 103.509 220.377C103.624 220.294 103.766 220.26 103.906 220.281C104.045 220.303 104.17 220.378 104.254 220.492Z" fill="white"/>
<path d="M198.213 87.5182C198.213 87.5182 191.178 117.146 199.776 117.146C208.374 117.146 228.698 83.6197 228.698 83.6197L221.663 75.0432L209.036 92.5297L208.374 83.6197L198.213 87.5182Z" fill="#A0616A"/>
<path d="M226.823 84.9078C230.602 84.9078 233.667 81.8514 233.667 78.0812C233.667 74.311 230.602 71.2546 226.823 71.2546C223.043 71.2546 219.979 74.311 219.979 78.0812C219.979 81.8514 223.043 84.9078 226.823 84.9078Z" fill="#A0616A"/>
<path d="M192.248 289.31L201.357 289.309L205.692 254.259L192.246 254.26L192.248 289.31Z" fill="#A0616A"/>
<path d="M191.927 298.789L219.941 298.788V298.435C219.941 295.55 218.792 292.784 216.747 290.744C214.702 288.705 211.929 287.559 209.037 287.559H209.037L203.919 283.686L194.372 287.559L191.927 287.559L191.927 298.789Z" fill="#2F2E41"/>
<path d="M94.2554 277.973L102.406 282.03L121.976 252.6L109.945 246.611L94.2554 277.973Z" fill="#A0616A"/>
<path d="M89.7241 286.311L114.79 298.789L114.948 298.473C116.24 295.892 116.45 292.905 115.534 290.169C114.617 287.433 112.649 285.173 110.061 283.884L110.061 283.884L107.216 278.14L96.9394 277.353L94.7513 276.263L89.7241 286.311Z" fill="#2F2E41"/>
<path d="M300 298.823H0V299.999H300V298.823Z" fill="#CCCCCC"/>
<path d="M133.35 141.267C133.35 141.267 129.709 184.93 128.927 194.287C128.392 200.152 127.077 205.92 125.019 211.44C125.019 211.44 123.456 214.558 123.456 217.677L105.738 249.796C105.738 249.796 100.324 253.765 101.106 256.884C101.887 260.003 97.8413 261.873 97.8413 261.873L116.5 265.46C116.5 265.46 115.718 263.121 118.063 262.342C120.408 261.562 122.275 254.799 122.275 254.799L148.469 212.219L167.229 173.235C167.229 173.235 178.172 208.321 180.517 212.219C180.517 212.219 189.116 255.882 190.679 259.78C192.242 263.679 193.024 263.679 192.242 265.238C191.46 266.797 191.46 268.357 192.242 269.136C193.024 269.916 207.875 269.136 207.875 269.136L203.967 213.779L196.932 147.506L160.976 136.59L133.35 141.267Z" fill="#2F2E41"/>
<path d="M168.553 37.033C177.619 37.033 184.968 29.7024 184.968 20.6596C184.968 11.6169 177.619 4.28625 168.553 4.28625C159.487 4.28625 152.138 11.6169 152.138 20.6596C152.138 29.7024 159.487 37.033 168.553 37.033Z" fill="#A0616A"/>
<path d="M198.496 60.9608L178.955 49.1516C178.955 49.1516 178.413 41.8184 172.845 41.4733C170.05 41.3001 165.855 41.0352 159.56 40.6304C158.23 40.5448 157.332 47.8047 155.808 47.7062L135.181 53.164L138.307 106.182C138.307 106.182 133.617 127.234 135.181 131.132C136.744 135.031 131.272 136.59 132.836 137.37C134.399 138.15 132.836 143.607 132.836 143.607C132.836 143.607 163.321 159.201 196.932 147.506L193.805 137.37C194.231 136.045 194.311 134.633 194.037 133.269C193.764 131.905 193.146 130.633 192.242 129.573C192.242 129.573 195.369 124.895 191.46 120.996C191.46 120.996 193.024 113.979 189.115 110.861L188.334 99.945L190.679 94.4872L198.496 60.9608Z" fill="#E6E6E6"/>
<path d="M154.31 30.0133L153.851 28.9502C153.792 28.8128 147.986 15.1243 153.132 6.68079C155.514 2.77187 159.845 0.564969 166.005 0.121898C175.643 -0.573221 182.239 1.70724 185.616 6.89514C186.182 7.77439 186.5 8.78956 186.537 9.83391C186.574 10.8783 186.328 11.9132 185.825 12.83C185.322 13.7467 184.581 14.5114 183.679 15.0436C182.777 15.5757 181.749 15.8558 180.701 15.8542H180.572L178.801 13.5607L178.698 13.7838C178.057 15.1673 176.584 15.9248 174.86 15.7589C174.566 15.7378 174.306 15.9904 174.098 16.5309C174.027 16.7673 173.895 16.9806 173.713 17.1482C173.532 17.3158 173.309 17.4316 173.067 17.4835C171.793 17.7309 169.976 16.1299 169.163 15.332C169.132 15.5156 169.062 15.6904 168.957 15.8445C168.852 15.9986 168.715 16.1285 168.555 16.2253C167.698 16.7184 166.365 16.0743 165.982 15.8691C162.933 16.5153 160.96 16.3425 160.114 15.3561C159.541 19.4014 158.311 26.6828 156.835 27.0864C156.681 27.1218 156.52 27.1068 156.375 27.0436C156.23 26.9803 156.109 26.8723 156.03 26.7354C155.675 26.2754 155.358 26.0462 155.159 26.1105C154.679 26.2628 154.396 27.8392 154.356 28.8567L154.31 30.0133Z" fill="#2F2E41"/>
<path d="M189.898 61.7407L197.695 60.4771C203.312 65.8602 207.138 72.8325 208.657 80.4531C211.002 92.928 211.784 95.2671 211.784 95.2671L193.024 99.9452L182.863 80.4531L189.898 61.7407Z" fill="#E6E6E6"/>
<path d="M155.297 77.9666L150.479 138.899L273.451 148.574L278.269 87.6425L155.297 77.9666Z" fill="white"/>
<path d="M168.435 82.6875C165.426 80.5438 161.605 80.3889 160.146 80.4197C160.591 81.8061 161.975 85.3619 164.984 87.5064C168.001 89.6555 171.817 89.8057 173.274 89.7757C172.829 88.3898 171.445 84.8326 168.435 82.6875Z" fill="#297FFF"/>
<path d="M180.307 121.46L160.561 119.906C159.978 119.86 159.391 119.929 158.835 120.11C158.278 120.29 157.762 120.578 157.317 120.957C156.872 121.336 156.506 121.799 156.241 122.319C155.975 122.839 155.814 123.406 155.768 123.988C155.722 124.57 155.792 125.155 155.972 125.71C156.153 126.266 156.442 126.78 156.822 127.224C157.202 127.668 157.666 128.033 158.187 128.298C158.708 128.563 159.277 128.723 159.861 128.769L179.606 130.323C180.785 130.415 181.951 130.037 182.85 129.272C183.749 128.506 184.307 127.416 184.399 126.241C184.492 125.065 184.114 123.901 183.346 123.005C182.579 122.108 181.485 121.552 180.307 121.46Z" fill="#297FFF"/>
<path d="M273.421 81.7201L162.713 73.0083C161.426 72.9072 160.131 73.06 158.902 73.4581C157.674 73.8562 156.536 74.4917 155.554 75.3285C154.571 76.1652 153.764 77.1867 153.178 78.3346C152.591 79.4826 152.237 80.7345 152.136 82.0189L147.878 135.818C147.674 138.413 148.51 140.982 150.205 142.962C151.899 144.941 154.312 146.168 156.913 146.374L267.621 155.085C268.909 155.187 270.204 155.034 271.432 154.636C272.661 154.238 273.799 153.602 274.781 152.765C275.763 151.929 276.57 150.907 277.157 149.759C277.743 148.611 278.097 147.359 278.199 146.075L282.245 94.941L282.326 93.8963L282.455 92.2707C282.556 90.9862 282.403 89.6945 282.004 88.4691C281.605 87.2438 280.968 86.1089 280.129 85.1292C279.29 84.1494 278.266 83.3441 277.115 82.7592C275.964 82.1743 274.709 81.8212 273.421 81.7201ZM270.152 128.528L269.451 137.392C269.323 138.957 268.578 140.408 267.38 141.428C266.183 142.447 264.629 142.952 263.059 142.832L248.248 141.668C246.678 141.54 245.224 140.798 244.202 139.603C243.179 138.408 242.673 136.858 242.793 135.292L243.495 126.429C243.624 124.864 244.368 123.413 245.566 122.394C246.764 121.374 248.317 120.869 249.887 120.988L264.693 122.154C266.262 122.282 267.717 123.024 268.74 124.219C269.762 125.413 270.27 126.962 270.152 128.528ZM154.788 123.907C154.903 122.472 155.584 121.142 156.681 120.208C157.778 119.273 159.201 118.811 160.64 118.923L180.385 120.477C181.098 120.532 181.793 120.727 182.431 121.05C183.069 121.373 183.637 121.819 184.102 122.361C184.567 122.903 184.921 123.531 185.142 124.209C185.364 124.888 185.449 125.603 185.394 126.315C185.338 127.026 185.143 127.72 184.818 128.356C184.494 128.991 184.047 129.557 183.503 130.021C182.959 130.485 182.329 130.837 181.648 131.057C180.968 131.278 180.251 131.363 179.538 131.306L179.527 131.309L159.782 129.754C159.069 129.698 158.374 129.502 157.737 129.178C157.1 128.853 156.533 128.407 156.07 127.864C155.606 127.32 155.254 126.691 155.034 126.012C154.814 125.333 154.731 124.618 154.788 123.907ZM159.015 80.0686L158.88 79.5176L159.448 79.4657C159.671 79.4419 164.923 78.9716 169.011 81.8847C173.1 84.7978 174.354 89.909 174.408 90.1228L174.538 90.675L173.971 90.732C173.167 90.7917 172.359 90.7863 171.556 90.7161C168.999 90.5668 166.531 89.7351 164.407 88.3079C160.319 85.3948 159.065 80.2836 159.015 80.0686Z" fill="#297FFF"/>
<path d="M253.542 134.406L247.125 133.901C246.667 133.866 246.214 134.013 245.865 134.311C245.516 134.609 245.3 135.032 245.264 135.489C245.228 135.945 245.375 136.398 245.673 136.746C245.97 137.095 246.395 137.311 246.852 137.348L253.27 137.853C253.727 137.888 254.18 137.741 254.529 137.443C254.878 137.145 255.095 136.722 255.131 136.265C255.167 135.809 255.02 135.357 254.722 135.008C254.424 134.659 254 134.443 253.542 134.406Z" fill="#297FFF"/>
<path d="M265.39 135.338L258.972 134.834C258.515 134.799 258.062 134.946 257.713 135.244C257.364 135.542 257.148 135.965 257.112 136.421C257.076 136.878 257.223 137.33 257.521 137.678C257.818 138.027 258.242 138.243 258.7 138.28L265.117 138.785C265.575 138.82 266.027 138.672 266.376 138.375C266.725 138.077 266.941 137.654 266.977 137.197C267.013 136.741 266.866 136.289 266.568 135.941C266.271 135.592 265.847 135.376 265.39 135.338Z" fill="#297FFF"/>
<path d="M253.893 129.975L247.475 129.47C247.018 129.435 246.565 129.582 246.216 129.88C245.868 130.178 245.652 130.601 245.615 131.058C245.579 131.514 245.726 131.966 246.024 132.314C246.321 132.663 246.745 132.879 247.203 132.916L253.62 133.421C254.078 133.457 254.531 133.309 254.88 133.012C255.229 132.714 255.445 132.29 255.481 131.834C255.517 131.377 255.37 130.925 255.072 130.576C254.775 130.228 254.35 130.012 253.893 129.975Z" fill="#297FFF"/>
<path d="M265.74 130.907L259.323 130.402C258.865 130.367 258.412 130.514 258.063 130.812C257.714 131.11 257.498 131.533 257.462 131.99C257.426 132.446 257.573 132.898 257.871 133.247C258.168 133.595 258.593 133.812 259.05 133.849L265.468 134.354C265.925 134.389 266.378 134.241 266.727 133.944C267.076 133.646 267.293 133.223 267.329 132.766C267.365 132.309 267.218 131.857 266.92 131.509C266.622 131.16 266.198 130.944 265.74 130.907Z" fill="#297FFF"/>
<path d="M254.243 125.543L247.826 125.038C247.368 125.003 246.915 125.15 246.566 125.448C246.217 125.746 246.001 126.169 245.965 126.626C245.928 127.082 246.075 127.535 246.373 127.883C246.671 128.232 247.095 128.448 247.553 128.485L253.97 128.99C254.428 129.025 254.881 128.877 255.229 128.58C255.578 128.282 255.794 127.858 255.83 127.402C255.866 126.946 255.719 126.494 255.422 126.145C255.124 125.797 254.7 125.58 254.243 125.543Z" fill="#297FFF"/>
<path d="M266.09 126.475L259.673 125.97C259.215 125.935 258.763 126.083 258.414 126.381C258.065 126.678 257.849 127.102 257.813 127.558C257.777 128.014 257.924 128.466 258.222 128.815C258.519 129.163 258.943 129.38 259.4 129.417L265.818 129.922C266.275 129.957 266.728 129.809 267.077 129.512C267.426 129.214 267.642 128.791 267.678 128.334C267.714 127.878 267.567 127.426 267.269 127.077C266.972 126.729 266.548 126.512 266.09 126.475Z" fill="#297FFF"/>
<path d="M150.49 98.9946L150.408 100.041L280.364 110.224L280.446 109.177L150.49 98.9946Z" fill="white"/>
<path d="M282.326 93.896L282.244 94.941L277.721 94.5871L229.533 90.8114L229.62 89.7654L277.803 93.5421L282.326 93.896Z" fill="#3F3D56"/>
<path d="M123.456 82.7921C123.456 82.7921 116.421 112.42 125.019 112.42C133.618 112.42 153.941 78.8936 153.941 78.8936L146.906 70.3171L134.279 87.8036L133.618 78.8937L123.456 82.7921Z" fill="#A0616A"/>
<path d="M152.066 80.1817C155.846 80.1817 158.91 77.1253 158.91 73.3551C158.91 69.5849 155.846 66.5286 152.066 66.5286C148.287 66.5286 145.222 69.5849 145.222 73.3551C145.222 77.1253 148.287 80.1817 152.066 80.1817Z" fill="#A0616A"/>
<path d="M140.875 57.8422L136.185 53.1641C136.185 53.1641 126.805 58.6218 126.024 64.0796C125.242 69.5374 121.334 86.6905 121.334 86.6905L135.794 87.86L140.484 80.8428L140.875 57.8422Z" fill="#E6E6E6"/>
</svg>
