<svg width="448" height="310" viewBox="0 0 448 310" fill="none" xmlns="http://www.w3.org/2000/svg">
<g clip-path="url(#clip0_70_133)">
<path opacity="0.1" d="M253.402 42.2058C224.686 42.2443 197.045 34.0851 170.607 25.021C144.169 15.9569 117.934 5.80702 89.7521 1.50601C71.6273 -1.25865 51.0169 -1.00451 36.8489 9.03374C23.2111 18.6908 19.2619 34.6742 17.3565 49.4409C15.9235 60.5496 15.2628 72.2089 20.6295 82.3704C24.3559 89.4245 30.733 95.2388 35.2278 101.962C50.917 125.35 41.4819 155.226 26.2345 179.157C19.0852 190.385 10.7104 201.147 5.30526 213.018C-0.0999174 224.889 -2.31654 238.35 3.19621 250.067C8.65901 261.681 20.9983 270.109 34.2405 275.866C61.1319 287.579 92.4412 290.089 122.909 291.056C190.353 293.201 257.927 288.827 325.321 284.452C350.261 282.835 375.312 281.206 399.737 276.52C413.298 273.921 427.263 270.063 436.878 261.607C449.083 250.872 451.58 233.345 442.699 220.746C427.805 199.614 388.531 195.629 377.852 172.765C371.962 160.177 377.041 145.742 384.521 133.609C400.563 107.576 428.177 84.2571 428.642 55.1396C428.961 35.144 414.601 15.6374 393.153 6.94677C370.672 -2.15581 340.019 0.185291 324.269 17.1506C308.072 34.628 278.757 42.1789 253.402 42.2058Z" fill="#297FFF"/>
<path d="M381.294 248.496C381.294 248.496 376.572 245.373 371.893 247.595C371.893 247.595 373.334 250.375 379.258 250.113L381.294 248.496Z" fill="#297FFF"/>
<path d="M381.893 248.661C381.893 248.661 383.33 254.145 379.727 257.876C379.727 257.876 377.56 255.616 379.727 250.078L381.893 248.661Z" fill="#297FFF"/>
<path d="M387.763 243.398C387.763 243.398 387.414 238.735 376.907 240.283C376.907 240.283 376.857 243.29 380.545 244.715C384.233 246.139 385.923 244.938 387.763 243.398Z" fill="#297FFF"/>
<path d="M388.424 243.367C388.424 243.367 392.865 244.796 388.904 254.672C388.904 254.672 385.973 254.018 385.447 250.086C384.92 246.155 386.48 244.799 388.424 243.367Z" fill="#297FFF"/>
<path d="M394.356 236.752C394.356 236.752 394.959 229.078 384.221 229.863C384.221 229.863 383.453 236.794 392.462 238.596L394.356 236.752Z" fill="#297FFF"/>
<path d="M401.451 228.088C401.451 228.088 399.98 219.39 389.246 221.981C389.246 221.981 389.208 229.501 399.699 230.16L401.451 228.088Z" fill="#297FFF"/>
<path d="M406.637 219.132C406.637 219.132 404.171 210.661 393.537 213.195C393.537 213.195 396.069 220.815 405.93 220.695L406.637 219.132Z" fill="#00BFA6"/>
<path d="M411.562 210.384C411.562 210.384 409.153 201.593 398.885 204.223C398.885 204.223 402.311 212.575 410.882 211.87L411.562 210.384Z" fill="#00BFA6"/>
<path d="M414.736 202.074C414.736 202.074 412.884 191.324 403.311 193.703C403.311 193.703 406.092 203.484 414.033 203.641L414.736 202.074Z" fill="#00BFA6"/>
<path d="M417.712 192.036C417.712 192.036 415.488 181.201 405.803 184.335C405.803 184.335 409.599 194.577 417.025 193.518L417.712 192.036Z" fill="#00BFA6"/>
<path d="M419.541 182.695C419.541 182.695 416.011 171.856 408.523 172.148C408.523 172.148 412.131 183.596 418.915 184.855L419.541 182.695Z" fill="#00BFA6"/>
<path d="M420.725 173.577C420.725 173.577 416.883 160.531 410.79 161.536C410.79 161.536 413.448 171.509 420.509 175.61L420.725 173.577Z" fill="#00BFA6"/>
<path d="M421.393 162.699C421.393 162.699 417.789 151.829 411.789 151.394C411.789 151.394 414.24 162.091 421.274 165.525L421.393 162.699Z" fill="#00BFA6"/>
<path d="M422.119 152.549C422.119 152.549 417.628 141.668 413.667 141.421C413.667 141.421 415.619 152.137 421.735 154.336L422.119 152.549Z" fill="#00BFA6"/>
<path d="M422.614 143.108C422.614 143.108 419.852 131.291 415.884 130.309C415.884 130.309 416.425 139.977 422.215 143.993L422.614 143.108Z" fill="#00BFA6"/>
<path d="M424.112 130.74C424.112 130.74 421.208 121.318 417.993 119.882C417.993 119.882 418.627 130.99 423.371 133.043L424.112 130.74Z" fill="#00BFA6"/>
<path d="M425.353 122.654L425.937 106.043C425.937 106.043 419.925 118.565 424.919 125.569L425.353 122.654Z" fill="#00BFA6"/>
<path d="M429.994 106.131C429.994 106.131 434.324 94.0023 435.372 93.3246C435.372 93.3246 426.883 101.195 427.712 111.318L429.994 106.131Z" fill="#00BFA6"/>
<path d="M394.647 236.694C394.647 236.694 402.262 235.697 402.035 246.482C402.035 246.482 395.155 247.606 392.907 238.685L394.647 236.694Z" fill="#297FFF"/>
<path d="M401.812 227.796C401.812 227.796 410.609 227.769 409.879 238.808C409.879 238.808 402.492 240.133 400.056 229.883L401.812 227.796Z" fill="#00BFA6"/>
<path d="M406.721 219.844C406.721 219.844 414.708 216.09 419.818 225.782C419.818 225.782 412.442 228.908 406.015 221.412L406.721 219.844Z" fill="#00BFA6"/>
<path d="M411.739 210.465C411.739 210.465 419.917 206.472 424.719 215.936C424.719 215.936 416.199 218.878 411.062 211.962L411.739 210.465Z" fill="#00BFA6"/>
<path d="M414.632 202.309C414.632 202.309 422.503 194.774 428.784 202.394C428.784 202.394 420.744 208.597 414.271 203.988L414.632 202.309Z" fill="#00BFA6"/>
<path d="M417.267 191.778C417.267 191.778 425.184 184.077 431.415 192.132C431.415 192.132 422.53 198.459 416.982 193.395L417.267 191.778Z" fill="#00BFA6"/>
<path d="M418.746 182.387C418.746 182.387 424.847 172.76 432.03 174.909C432.03 174.909 425.699 185.101 418.815 184.647L418.746 182.387Z" fill="#00BFA6"/>
<path d="M420.544 173.515C420.544 173.515 426.69 161.394 432.507 163.504C432.507 163.504 428.073 172.822 420.386 175.56L420.544 173.515Z" fill="#00BFA6"/>
<path d="M420.97 162.068C420.97 162.068 427.29 152.526 433.21 153.693C433.21 153.693 428.043 163.369 420.355 164.828L420.97 162.068Z" fill="#00BFA6"/>
<path d="M421.462 152.337C421.462 152.337 426.36 141.629 430.34 141.556C430.34 141.556 427.989 152.187 421.792 154.155L421.462 152.337Z" fill="#00BFA6"/>
<path d="M422.422 142.877C422.422 142.877 427.866 132.034 431.957 132.011C431.957 132.011 429.172 141.283 422.603 143.828L422.422 142.877Z" fill="#00BFA6"/>
<path d="M423.241 131.418C423.241 131.418 427.313 122.446 430.686 121.429C430.686 121.429 428.65 132.365 423.69 133.797L423.241 131.418Z" fill="#00BFA6"/>
<path d="M425.837 122.327L434.938 108.43C434.938 108.43 432.606 122.138 424.508 124.987L425.837 122.327Z" fill="#00BFA6"/>
<path d="M432.084 107.252C432.084 107.252 442.66 99.9359 443.044 98.7538C443.044 98.7538 437.666 109 427.678 110.81L432.084 107.252Z" fill="#00BFA6"/>
<path d="M432.718 103.96C432.718 103.96 444.862 92.258 447.962 92.2695C447.962 92.2695 437.947 92.7277 432.426 103.336L432.718 103.96Z" fill="#00BFA6"/>
<path d="M423.36 133.154L423.802 133.212C426.084 115.311 429.41 104.718 433.168 103.421L433.022 102.997C429.038 104.383 425.688 114.814 423.36 133.154Z" fill="#444053"/>
<path d="M420.002 175.964L420.67 176.018C420.813 174.347 420.92 172.637 420.993 170.931C421.631 156.115 422.618 142.507 423.917 132.307L423.532 131.826C422.23 142.049 420.962 156.065 420.325 170.904C420.252 172.599 420.144 174.301 420.002 175.964Z" fill="#444053"/>
<path d="M368.832 257.036C368.947 256.986 380.714 251.719 392.927 239.158C400.082 231.802 406.027 223.354 410.54 214.13C416.188 202.606 419.63 188.444 420.782 174.686L420.087 175.013C417.494 205.894 403.468 226.995 392.316 238.488C380.222 250.937 368.586 256.151 368.471 256.201L368.832 257.036Z" fill="#444053"/>
<path d="M399.299 32.8178H30.1644C29.2923 32.8178 28.4558 33.1651 27.8391 33.7832C27.2224 34.4013 26.876 35.2397 26.876 36.1138V45.717H402.588V36.1138C402.588 35.2397 402.241 34.4013 401.625 33.7832C401.008 33.1651 400.172 32.8178 399.299 32.8178Z" fill="#3F3D56"/>
<path d="M26.876 45.717V261.823C26.876 263.585 27.5746 265.276 28.8181 266.522C30.0615 267.768 31.7481 268.468 33.5066 268.468H395.957C397.716 268.468 399.402 267.768 400.646 266.522C401.889 265.276 402.588 263.585 402.588 261.823V45.717H26.876Z" fill="white"/>
<path opacity="0.8" d="M32.8267 40.7114C33.6754 40.7114 34.3633 40.0218 34.3633 39.1712C34.3633 38.3205 33.6754 37.631 32.8267 37.631C31.978 37.631 31.29 38.3205 31.29 39.1712C31.29 40.0218 31.978 40.7114 32.8267 40.7114Z" fill="#FA5959"/>
<path opacity="0.8" d="M37.0528 40.7114C37.9014 40.7114 38.5894 40.0218 38.5894 39.1712C38.5894 38.3205 37.9014 37.631 37.0528 37.631C36.2041 37.631 35.5161 38.3205 35.5161 39.1712C35.5161 40.0218 36.2041 40.7114 37.0528 40.7114Z" fill="#FED253"/>
<path opacity="0.8" d="M41.2784 40.7114C42.127 40.7114 42.815 40.0218 42.815 39.1712C42.815 38.3205 42.127 37.631 41.2784 37.631C40.4297 37.631 39.7417 38.3205 39.7417 39.1712C39.7417 40.0218 40.4297 40.7114 41.2784 40.7114Z" fill="#8CCF4D"/>
<path opacity="0.05" d="M363.753 81.75H61.8003V214.831H363.753V81.75Z" fill="black"/>
<path d="M361.448 82.7588H64.1055V212.906H361.448V82.7588Z" fill="#3F3D56"/>
<path d="M145.164 116.254C139.314 116.254 133.595 117.993 128.73 121.251C123.866 124.509 120.074 129.139 117.835 134.557C115.596 139.975 115.011 145.936 116.152 151.687C117.293 157.439 120.111 162.722 124.247 166.868C128.384 171.015 133.655 173.838 139.393 174.982C145.131 176.126 151.079 175.539 156.484 173.295C161.889 171.051 166.509 167.251 169.759 162.375C173.01 157.499 174.745 151.767 174.745 145.903C174.745 142.01 173.98 138.154 172.493 134.557C171.006 130.96 168.828 127.691 166.081 124.938C163.334 122.185 160.073 120.001 156.484 118.511C152.895 117.021 149.049 116.254 145.164 116.254ZM150.469 146.616V160.654H140.012V146.616C138.565 145.518 137.499 143.992 136.964 142.254C136.428 140.516 136.451 138.653 137.029 136.928C137.606 135.204 138.71 133.705 140.183 132.643C141.657 131.581 143.426 131.01 145.241 131.01C147.056 131.01 148.825 131.581 150.298 132.643C151.772 133.705 152.875 135.204 153.453 136.928C154.031 138.653 154.054 140.516 153.518 142.254C152.983 143.992 151.916 145.518 150.469 146.616Z" fill="#297FFF"/>
<path opacity="0.05" d="M145.164 116.254C139.314 116.254 133.595 117.993 128.73 121.251C123.866 124.509 120.074 129.139 117.835 134.557C115.596 139.975 115.011 145.936 116.152 151.687C117.293 157.439 120.111 162.722 124.247 166.868C128.384 171.015 133.655 173.838 139.393 174.982C145.131 176.126 151.079 175.539 156.484 173.295C161.889 171.051 166.509 167.251 169.759 162.375C173.01 157.499 174.745 151.767 174.745 145.903C174.745 142.01 173.98 138.154 172.493 134.557C171.006 130.96 168.828 127.691 166.081 124.938C163.334 122.185 160.073 120.001 156.484 118.511C152.895 117.021 149.049 116.254 145.164 116.254ZM150.469 146.616V160.654H140.012V146.616C138.565 145.518 137.499 143.992 136.964 142.254C136.428 140.516 136.451 138.653 137.029 136.928C137.606 135.204 138.71 133.705 140.183 132.643C141.657 131.581 143.426 131.01 145.241 131.01C147.056 131.01 148.825 131.581 150.298 132.643C151.772 133.705 152.875 135.204 153.453 136.928C154.031 138.653 154.054 140.516 153.518 142.254C152.983 143.992 151.916 145.518 150.469 146.616Z" fill="black"/>
<path d="M145.164 107.783C137.642 107.783 130.289 110.019 124.034 114.208C117.78 118.396 112.905 124.35 110.027 131.315C107.148 138.281 106.395 145.945 107.863 153.34C109.33 160.735 112.952 167.527 118.271 172.858C123.59 178.189 130.367 181.82 137.744 183.291C145.122 184.762 152.769 184.007 159.718 181.121C166.668 178.236 172.608 173.35 176.787 167.081C180.966 160.813 183.196 153.443 183.196 145.903C183.196 135.793 179.189 126.097 172.057 118.948C164.924 111.799 155.251 107.783 145.164 107.783ZM151.983 146.82V164.867H138.537V146.82C136.676 145.408 135.304 143.446 134.615 141.21C133.927 138.975 133.956 136.579 134.699 134.361C135.442 132.144 136.861 130.216 138.756 128.85C140.651 127.484 142.926 126.749 145.26 126.749C147.594 126.749 149.869 127.484 151.764 128.85C153.659 130.216 155.079 132.144 155.821 134.361C156.564 136.579 156.594 138.975 155.905 141.21C155.216 143.446 153.844 145.408 151.983 146.82Z" fill="#297FFF"/>
<path d="M321.879 140.901H198.947V153.993H321.879V140.901Z" fill="white"/>
<path d="M321.879 164.774H295.372V177.866H321.879V164.774Z" fill="#297FFF"/>
<path d="M211.048 147.251H208.824L210.802 145.272C210.837 145.235 210.857 145.186 210.857 145.135C210.857 145.084 210.837 145.035 210.802 144.998C210.784 144.98 210.763 144.966 210.74 144.956C210.716 144.946 210.691 144.941 210.666 144.941C210.64 144.941 210.615 144.946 210.592 144.956C210.568 144.966 210.547 144.98 210.529 144.998L208.551 146.981V144.748C208.551 144.697 208.531 144.648 208.495 144.612C208.459 144.576 208.41 144.556 208.359 144.556C208.308 144.556 208.26 144.577 208.224 144.613C208.188 144.649 208.168 144.697 208.167 144.748V146.981L206.192 144.987C206.174 144.969 206.153 144.954 206.13 144.945C206.106 144.935 206.081 144.93 206.056 144.93C206.03 144.93 206.005 144.935 205.982 144.945C205.958 144.954 205.937 144.969 205.919 144.987C205.884 145.023 205.864 145.072 205.864 145.123C205.864 145.174 205.884 145.224 205.919 145.26L207.898 147.239H205.67C205.619 147.24 205.571 147.261 205.535 147.297C205.499 147.333 205.479 147.381 205.478 147.432C205.478 147.483 205.498 147.532 205.534 147.568C205.57 147.604 205.619 147.624 205.67 147.624H207.898L205.919 149.607C205.884 149.644 205.864 149.693 205.864 149.744C205.864 149.795 205.884 149.844 205.919 149.881C205.956 149.915 206.005 149.935 206.056 149.935C206.106 149.935 206.155 149.915 206.192 149.881L208.167 147.898V150.127C208.167 150.178 208.187 150.227 208.223 150.263C208.259 150.299 208.308 150.32 208.359 150.32C208.41 150.32 208.459 150.299 208.495 150.263C208.531 150.227 208.551 150.178 208.551 150.127V147.898L210.529 149.881C210.566 149.915 210.615 149.935 210.666 149.935C210.716 149.935 210.765 149.915 210.802 149.881C210.837 149.844 210.857 149.795 210.857 149.744C210.857 149.693 210.837 149.644 210.802 149.607L208.824 147.624H211.048C211.099 147.624 211.148 147.604 211.184 147.568C211.22 147.532 211.24 147.483 211.24 147.432C211.237 147.383 211.216 147.337 211.18 147.303C211.144 147.269 211.097 147.251 211.048 147.251Z" fill="#297FFF"/>
<path d="M219.115 147.251H216.891L218.869 145.272C218.905 145.235 218.925 145.186 218.925 145.135C218.925 145.084 218.905 145.035 218.869 144.998C218.852 144.98 218.83 144.966 218.807 144.956C218.783 144.946 218.758 144.941 218.733 144.941C218.708 144.941 218.683 144.946 218.659 144.956C218.636 144.966 218.614 144.98 218.597 144.998L216.618 146.981V144.748C216.618 144.697 216.598 144.648 216.562 144.612C216.526 144.576 216.477 144.556 216.426 144.556C216.376 144.556 216.327 144.577 216.291 144.613C216.256 144.649 216.235 144.697 216.234 144.748V146.981L214.259 144.987C214.242 144.969 214.22 144.954 214.197 144.945C214.174 144.935 214.148 144.93 214.123 144.93C214.098 144.93 214.073 144.935 214.049 144.945C214.026 144.954 214.005 144.969 213.987 144.987C213.951 145.023 213.931 145.072 213.931 145.123C213.931 145.174 213.951 145.224 213.987 145.26L215.965 147.239H213.737C213.686 147.24 213.638 147.261 213.602 147.297C213.566 147.333 213.546 147.381 213.545 147.432C213.545 147.483 213.565 147.532 213.601 147.568C213.637 147.604 213.686 147.624 213.737 147.624H215.965L213.987 149.607C213.951 149.644 213.931 149.693 213.931 149.744C213.931 149.795 213.951 149.844 213.987 149.881C214.024 149.915 214.072 149.935 214.123 149.935C214.174 149.935 214.222 149.915 214.259 149.881L216.234 147.898V150.127C216.234 150.178 216.254 150.227 216.29 150.263C216.326 150.299 216.375 150.32 216.426 150.32C216.477 150.32 216.526 150.299 216.562 150.263C216.598 150.227 216.618 150.178 216.618 150.127V147.898L218.597 149.881C218.634 149.915 218.682 149.935 218.733 149.935C218.784 149.935 218.832 149.915 218.869 149.881C218.905 149.844 218.925 149.795 218.925 149.744C218.925 149.693 218.905 149.644 218.869 149.607L216.891 147.624H219.115C219.166 147.624 219.215 147.604 219.251 147.568C219.287 147.532 219.307 147.483 219.307 147.432C219.304 147.383 219.283 147.337 219.247 147.303C219.211 147.269 219.164 147.251 219.115 147.251Z" fill="#297FFF"/>
<path d="M227.183 147.251H224.958L226.937 145.272C226.972 145.235 226.992 145.186 226.992 145.135C226.992 145.084 226.972 145.035 226.937 144.998C226.919 144.98 226.898 144.966 226.874 144.956C226.851 144.946 226.826 144.941 226.8 144.941C226.775 144.941 226.75 144.946 226.727 144.956C226.703 144.966 226.682 144.98 226.664 144.998L224.686 146.981V144.748C224.686 144.697 224.665 144.648 224.629 144.612C224.593 144.576 224.544 144.556 224.494 144.556C224.443 144.556 224.395 144.577 224.359 144.613C224.323 144.649 224.302 144.697 224.301 144.748V146.981L222.327 144.987C222.309 144.969 222.288 144.954 222.264 144.945C222.241 144.935 222.216 144.93 222.19 144.93C222.165 144.93 222.14 144.935 222.117 144.945C222.093 144.954 222.072 144.969 222.054 144.987C222.019 145.023 221.999 145.072 221.999 145.123C221.999 145.174 222.019 145.224 222.054 145.26L224.033 147.239H221.804C221.754 147.24 221.705 147.261 221.67 147.297C221.634 147.333 221.613 147.381 221.612 147.432C221.612 147.483 221.633 147.532 221.669 147.568C221.705 147.604 221.753 147.624 221.804 147.624H224.033L222.054 149.607C222.019 149.644 221.999 149.693 221.999 149.744C221.999 149.795 222.019 149.844 222.054 149.881C222.091 149.915 222.14 149.935 222.19 149.935C222.241 149.935 222.29 149.915 222.327 149.881L224.301 147.898V150.127C224.301 150.178 224.322 150.227 224.358 150.263C224.394 150.299 224.443 150.32 224.494 150.32C224.544 150.32 224.593 150.299 224.629 150.263C224.665 150.227 224.686 150.178 224.686 150.127V147.898L226.664 149.881C226.701 149.915 226.75 149.935 226.8 149.935C226.851 149.935 226.9 149.915 226.937 149.881C226.972 149.844 226.992 149.795 226.992 149.744C226.992 149.693 226.972 149.644 226.937 149.607L224.958 147.624H227.183C227.234 147.624 227.282 147.604 227.318 147.568C227.355 147.532 227.375 147.483 227.375 147.432C227.372 147.383 227.35 147.337 227.315 147.303C227.279 147.269 227.232 147.251 227.183 147.251Z" fill="#297FFF"/>
<path d="M235.25 147.251H233.026L235.004 145.272C235.04 145.235 235.059 145.186 235.059 145.135C235.059 145.084 235.04 145.035 235.004 144.998C234.986 144.98 234.965 144.966 234.942 144.956C234.918 144.946 234.893 144.941 234.868 144.941C234.842 144.941 234.817 144.946 234.794 144.956C234.771 144.966 234.749 144.98 234.731 144.998L232.753 146.981V144.748C232.753 144.697 232.733 144.648 232.697 144.612C232.661 144.576 232.612 144.556 232.561 144.556C232.51 144.556 232.462 144.577 232.426 144.613C232.39 144.649 232.37 144.697 232.369 144.748V146.981L230.394 144.987C230.376 144.969 230.355 144.954 230.332 144.945C230.308 144.935 230.283 144.93 230.258 144.93C230.232 144.93 230.207 144.935 230.184 144.945C230.161 144.954 230.139 144.969 230.121 144.987C230.086 145.023 230.066 145.072 230.066 145.123C230.066 145.174 230.086 145.224 230.121 145.26L232.1 147.239H229.872C229.821 147.24 229.773 147.261 229.737 147.297C229.701 147.333 229.681 147.381 229.68 147.432C229.68 147.483 229.7 147.532 229.736 147.568C229.772 147.604 229.821 147.624 229.872 147.624H232.1L230.121 149.607C230.086 149.644 230.066 149.693 230.066 149.744C230.066 149.795 230.086 149.844 230.121 149.881C230.158 149.915 230.207 149.935 230.258 149.935C230.308 149.935 230.357 149.915 230.394 149.881L232.369 147.898V150.127C232.369 150.178 232.389 150.227 232.425 150.263C232.461 150.299 232.51 150.32 232.561 150.32C232.612 150.32 232.661 150.299 232.697 150.263C232.733 150.227 232.753 150.178 232.753 150.127V147.898L234.731 149.881C234.768 149.915 234.817 149.935 234.868 149.935C234.918 149.935 234.967 149.915 235.004 149.881C235.04 149.844 235.059 149.795 235.059 149.744C235.059 149.693 235.04 149.644 235.004 149.607L233.026 147.624H235.25C235.301 147.624 235.35 147.604 235.386 147.568C235.422 147.532 235.442 147.483 235.442 147.432C235.439 147.383 235.418 147.337 235.382 147.303C235.346 147.269 235.299 147.251 235.25 147.251Z" fill="#297FFF"/>
<path d="M243.317 147.251H241.093L243.072 145.272C243.107 145.235 243.127 145.186 243.127 145.135C243.127 145.084 243.107 145.035 243.072 144.998C243.054 144.98 243.032 144.966 243.009 144.956C242.986 144.946 242.961 144.941 242.935 144.941C242.91 144.941 242.885 144.946 242.861 144.956C242.838 144.966 242.817 144.98 242.799 144.998L240.82 146.981V144.748C240.82 144.697 240.8 144.648 240.764 144.612C240.728 144.576 240.679 144.556 240.628 144.556C240.578 144.556 240.529 144.577 240.494 144.613C240.458 144.649 240.437 144.697 240.436 144.748V146.981L238.462 144.987C238.444 144.969 238.423 144.954 238.399 144.945C238.376 144.935 238.351 144.93 238.325 144.93C238.3 144.93 238.275 144.935 238.251 144.945C238.228 144.954 238.207 144.969 238.189 144.987C238.153 145.023 238.134 145.072 238.134 145.123C238.134 145.174 238.153 145.224 238.189 145.26L240.167 147.239H237.939C237.889 147.24 237.84 147.261 237.804 147.297C237.769 147.333 237.748 147.381 237.747 147.432C237.747 147.483 237.767 147.532 237.803 147.568C237.839 147.604 237.888 147.624 237.939 147.624H240.167L238.189 149.607C238.153 149.644 238.134 149.693 238.134 149.744C238.134 149.795 238.153 149.844 238.189 149.881C238.226 149.915 238.275 149.935 238.325 149.935C238.376 149.935 238.425 149.915 238.462 149.881L240.436 147.898V150.127C240.436 150.178 240.456 150.227 240.492 150.263C240.528 150.299 240.577 150.32 240.628 150.32C240.679 150.32 240.728 150.299 240.764 150.263C240.8 150.227 240.82 150.178 240.82 150.127V147.898L242.799 149.881C242.836 149.915 242.885 149.935 242.935 149.935C242.986 149.935 243.035 149.915 243.072 149.881C243.107 149.844 243.127 149.795 243.127 149.744C243.127 149.693 243.107 149.644 243.072 149.607L241.093 147.624H243.317C243.368 147.624 243.417 147.604 243.453 147.568C243.489 147.532 243.51 147.483 243.51 147.432C243.507 147.383 243.485 147.337 243.449 147.303C243.414 147.269 243.366 147.251 243.317 147.251Z" fill="#297FFF"/>
<path d="M251.385 147.251H249.161L251.139 145.272C251.174 145.235 251.194 145.186 251.194 145.135C251.194 145.084 251.174 145.035 251.139 144.998C251.121 144.98 251.1 144.966 251.076 144.956C251.053 144.946 251.028 144.941 251.003 144.941C250.977 144.941 250.952 144.946 250.929 144.956C250.905 144.966 250.884 144.98 250.866 144.998L248.888 146.981V144.748C248.888 144.697 248.868 144.648 248.831 144.612C248.795 144.576 248.747 144.556 248.696 144.556C248.645 144.556 248.597 144.577 248.561 144.613C248.525 144.649 248.505 144.697 248.504 144.748V146.981L246.529 144.987C246.511 144.969 246.49 144.954 246.466 144.945C246.443 144.935 246.418 144.93 246.393 144.93C246.367 144.93 246.342 144.935 246.319 144.945C246.295 144.954 246.274 144.969 246.256 144.987C246.221 145.023 246.201 145.072 246.201 145.123C246.201 145.174 246.221 145.224 246.256 145.26L248.235 147.239H246.007C245.956 147.24 245.908 147.261 245.872 147.297C245.836 147.333 245.815 147.381 245.814 147.432C245.814 147.483 245.835 147.532 245.871 147.568C245.907 147.604 245.956 147.624 246.007 147.624H248.235L246.256 149.607C246.221 149.644 246.201 149.693 246.201 149.744C246.201 149.795 246.221 149.844 246.256 149.881C246.293 149.915 246.342 149.935 246.393 149.935C246.443 149.935 246.492 149.915 246.529 149.881L248.504 147.898V150.127C248.504 150.178 248.524 150.227 248.56 150.263C248.596 150.299 248.645 150.32 248.696 150.32C248.747 150.32 248.795 150.299 248.831 150.263C248.868 150.227 248.888 150.178 248.888 150.127V147.898L250.866 149.881C250.903 149.915 250.952 149.935 251.003 149.935C251.053 149.935 251.102 149.915 251.139 149.881C251.174 149.844 251.194 149.795 251.194 149.744C251.194 149.693 251.174 149.644 251.139 149.607L249.161 147.624H251.385C251.436 147.624 251.485 147.604 251.521 147.568C251.557 147.532 251.577 147.483 251.577 147.432C251.574 147.383 251.552 147.337 251.517 147.303C251.481 147.269 251.434 147.251 251.385 147.251Z" fill="#297FFF"/>
<path d="M259.452 147.251H257.228L259.206 145.272C259.242 145.235 259.262 145.186 259.262 145.135C259.262 145.084 259.242 145.035 259.206 144.998C259.188 144.98 259.167 144.966 259.144 144.956C259.12 144.946 259.095 144.941 259.07 144.941C259.045 144.941 259.019 144.946 258.996 144.956C258.973 144.966 258.951 144.98 258.934 144.998L256.955 146.981V144.748C256.955 144.697 256.935 144.648 256.899 144.612C256.863 144.576 256.814 144.556 256.763 144.556C256.712 144.556 256.664 144.577 256.628 144.613C256.592 144.649 256.572 144.697 256.571 144.748V146.981L254.596 144.987C254.579 144.969 254.557 144.954 254.534 144.945C254.51 144.935 254.485 144.93 254.46 144.93C254.435 144.93 254.41 144.935 254.386 144.945C254.363 144.954 254.341 144.969 254.324 144.987C254.288 145.023 254.268 145.072 254.268 145.123C254.268 145.174 254.288 145.224 254.324 145.26L256.302 147.239H254.074C254.023 147.24 253.975 147.261 253.939 147.297C253.903 147.333 253.883 147.381 253.882 147.432C253.882 147.483 253.902 147.532 253.938 147.568C253.974 147.604 254.023 147.624 254.074 147.624H256.302L254.324 149.607C254.288 149.644 254.268 149.693 254.268 149.744C254.268 149.795 254.288 149.844 254.324 149.881C254.361 149.915 254.409 149.935 254.46 149.935C254.511 149.935 254.559 149.915 254.596 149.881L256.571 147.898V150.127C256.571 150.178 256.591 150.227 256.627 150.263C256.663 150.299 256.712 150.32 256.763 150.32C256.814 150.32 256.863 150.299 256.899 150.263C256.935 150.227 256.955 150.178 256.955 150.127V147.898L258.934 149.881C258.971 149.915 259.019 149.935 259.07 149.935C259.121 149.935 259.169 149.915 259.206 149.881C259.242 149.844 259.262 149.795 259.262 149.744C259.262 149.693 259.242 149.644 259.206 149.607L257.228 147.624H259.452C259.503 147.624 259.552 147.604 259.588 147.568C259.624 147.532 259.644 147.483 259.644 147.432C259.641 147.383 259.62 147.337 259.584 147.303C259.548 147.269 259.501 147.251 259.452 147.251Z" fill="#297FFF"/>
<path d="M267.52 147.251H265.296L267.274 145.272C267.31 145.235 267.329 145.186 267.329 145.135C267.329 145.084 267.31 145.035 267.274 144.998C267.256 144.98 267.235 144.966 267.212 144.956C267.188 144.946 267.163 144.941 267.138 144.941C267.112 144.941 267.087 144.946 267.064 144.956C267.041 144.966 267.019 144.98 267.001 144.998L265.023 146.981V144.748C265.023 144.697 265.003 144.648 264.967 144.612C264.931 144.576 264.882 144.556 264.831 144.556C264.78 144.556 264.732 144.577 264.696 144.613C264.66 144.649 264.64 144.697 264.639 144.748V146.981L262.664 144.987C262.646 144.969 262.625 144.954 262.602 144.945C262.578 144.935 262.553 144.93 262.528 144.93C262.502 144.93 262.477 144.935 262.454 144.945C262.431 144.954 262.409 144.969 262.391 144.987C262.356 145.023 262.336 145.072 262.336 145.123C262.336 145.174 262.356 145.224 262.391 145.26L264.37 147.239H262.142C262.091 147.24 262.043 147.261 262.007 147.297C261.971 147.333 261.951 147.381 261.95 147.432C261.95 147.483 261.97 147.532 262.006 147.568C262.042 147.604 262.091 147.624 262.142 147.624H264.37L262.391 149.607C262.356 149.644 262.336 149.693 262.336 149.744C262.336 149.795 262.356 149.844 262.391 149.881C262.428 149.915 262.477 149.935 262.528 149.935C262.578 149.935 262.627 149.915 262.664 149.881L264.639 147.898V150.127C264.639 150.178 264.659 150.227 264.695 150.263C264.731 150.299 264.78 150.32 264.831 150.32C264.882 150.32 264.931 150.299 264.967 150.263C265.003 150.227 265.023 150.178 265.023 150.127V147.898L267.001 149.881C267.038 149.915 267.087 149.935 267.138 149.935C267.188 149.935 267.237 149.915 267.274 149.881C267.31 149.844 267.329 149.795 267.329 149.744C267.329 149.693 267.31 149.644 267.274 149.607L265.296 147.624H267.52C267.571 147.624 267.62 147.604 267.656 147.568C267.692 147.532 267.712 147.483 267.712 147.432C267.709 147.383 267.688 147.337 267.652 147.303C267.616 147.269 267.569 147.251 267.52 147.251Z" fill="#297FFF"/>
<path d="M275.587 147.251H273.363L275.342 145.272C275.377 145.235 275.397 145.186 275.397 145.135C275.397 145.084 275.377 145.035 275.342 144.998C275.324 144.98 275.302 144.966 275.279 144.956C275.256 144.946 275.231 144.941 275.205 144.941C275.18 144.941 275.155 144.946 275.131 144.956C275.108 144.966 275.087 144.98 275.069 144.998L273.09 146.981V144.748C273.09 144.697 273.07 144.648 273.034 144.612C272.998 144.576 272.949 144.556 272.898 144.556C272.848 144.556 272.799 144.577 272.764 144.613C272.728 144.649 272.707 144.697 272.706 144.748V146.981L270.732 144.987C270.714 144.969 270.693 144.954 270.669 144.945C270.646 144.935 270.621 144.93 270.595 144.93C270.57 144.93 270.545 144.935 270.521 144.945C270.498 144.954 270.477 144.969 270.459 144.987C270.423 145.023 270.404 145.072 270.404 145.123C270.404 145.174 270.423 145.224 270.459 145.26L272.437 147.239H270.209C270.159 147.24 270.11 147.261 270.074 147.297C270.039 147.333 270.018 147.381 270.017 147.432C270.017 147.483 270.037 147.532 270.073 147.568C270.109 147.604 270.158 147.624 270.209 147.624H272.437L270.459 149.607C270.423 149.644 270.404 149.693 270.404 149.744C270.404 149.795 270.423 149.844 270.459 149.881C270.496 149.915 270.545 149.935 270.595 149.935C270.646 149.935 270.695 149.915 270.732 149.881L272.706 147.898V150.127C272.706 150.178 272.726 150.227 272.762 150.263C272.799 150.299 272.847 150.32 272.898 150.32C272.949 150.32 272.998 150.299 273.034 150.263C273.07 150.227 273.09 150.178 273.09 150.127V147.898L275.069 149.881C275.106 149.915 275.155 149.935 275.205 149.935C275.256 149.935 275.305 149.915 275.342 149.881C275.377 149.844 275.397 149.795 275.397 149.744C275.397 149.693 275.377 149.644 275.342 149.607L273.363 147.624H275.587C275.638 147.624 275.687 147.604 275.723 147.568C275.759 147.532 275.78 147.483 275.78 147.432C275.777 147.383 275.755 147.337 275.719 147.303C275.684 147.269 275.636 147.251 275.587 147.251Z" fill="#297FFF"/>
<path d="M283.655 147.251H281.431L283.409 145.272C283.444 145.235 283.464 145.186 283.464 145.135C283.464 145.084 283.444 145.035 283.409 144.998C283.391 144.98 283.37 144.966 283.346 144.956C283.323 144.946 283.298 144.941 283.273 144.941C283.247 144.941 283.222 144.946 283.199 144.956C283.175 144.966 283.154 144.98 283.136 144.998L281.158 146.981V144.748C281.158 144.697 281.138 144.648 281.102 144.612C281.065 144.576 281.017 144.556 280.966 144.556C280.915 144.556 280.867 144.577 280.831 144.613C280.795 144.649 280.775 144.697 280.774 144.748V146.981L278.799 144.987C278.781 144.969 278.76 144.954 278.737 144.945C278.713 144.935 278.688 144.93 278.663 144.93C278.637 144.93 278.612 144.935 278.589 144.945C278.565 144.954 278.544 144.969 278.526 144.987C278.491 145.023 278.471 145.072 278.471 145.123C278.471 145.174 278.491 145.224 278.526 145.26L280.505 147.239H278.277C278.226 147.24 278.178 147.261 278.142 147.297C278.106 147.333 278.085 147.381 278.084 147.432C278.084 147.483 278.105 147.532 278.141 147.568C278.177 147.604 278.226 147.624 278.277 147.624H280.505L278.526 149.607C278.491 149.644 278.471 149.693 278.471 149.744C278.471 149.795 278.491 149.844 278.526 149.881C278.563 149.915 278.612 149.935 278.663 149.935C278.713 149.935 278.762 149.915 278.799 149.881L280.774 147.898V150.127C280.774 150.178 280.794 150.227 280.83 150.263C280.866 150.299 280.915 150.32 280.966 150.32C281.017 150.32 281.065 150.299 281.102 150.263C281.138 150.227 281.158 150.178 281.158 150.127V147.898L283.136 149.881C283.173 149.915 283.222 149.935 283.273 149.935C283.323 149.935 283.372 149.915 283.409 149.881C283.444 149.844 283.464 149.795 283.464 149.744C283.464 149.693 283.444 149.644 283.409 149.607L281.431 147.624H283.655C283.706 147.624 283.755 147.604 283.791 147.568C283.827 147.532 283.847 147.483 283.847 147.432C283.844 147.383 283.822 147.337 283.787 147.303C283.751 147.269 283.704 147.251 283.655 147.251Z" fill="#297FFF"/>
<path d="M291.722 147.251H289.498L291.476 145.272C291.512 145.235 291.532 145.186 291.532 145.135C291.532 145.084 291.512 145.035 291.476 144.998C291.458 144.98 291.437 144.966 291.414 144.956C291.39 144.946 291.365 144.941 291.34 144.941C291.315 144.941 291.289 144.946 291.266 144.956C291.243 144.966 291.221 144.98 291.204 144.998L289.225 146.981V144.748C289.225 144.697 289.205 144.648 289.169 144.612C289.133 144.576 289.084 144.556 289.033 144.556C288.982 144.556 288.934 144.577 288.898 144.613C288.862 144.649 288.842 144.697 288.841 144.748V146.981L286.866 144.987C286.849 144.969 286.827 144.954 286.804 144.945C286.78 144.935 286.755 144.93 286.73 144.93C286.705 144.93 286.68 144.935 286.656 144.945C286.633 144.954 286.611 144.969 286.594 144.987C286.558 145.023 286.538 145.072 286.538 145.123C286.538 145.174 286.558 145.224 286.594 145.26L288.572 147.239H286.344C286.293 147.24 286.245 147.261 286.209 147.297C286.173 147.333 286.153 147.381 286.152 147.432C286.152 147.483 286.172 147.532 286.208 147.568C286.244 147.604 286.293 147.624 286.344 147.624H288.572L286.594 149.607C286.558 149.644 286.538 149.693 286.538 149.744C286.538 149.795 286.558 149.844 286.594 149.881C286.631 149.915 286.679 149.935 286.73 149.935C286.781 149.935 286.829 149.915 286.866 149.881L288.841 147.898V150.127C288.841 150.178 288.861 150.227 288.897 150.263C288.933 150.299 288.982 150.32 289.033 150.32C289.084 150.32 289.133 150.299 289.169 150.263C289.205 150.227 289.225 150.178 289.225 150.127V147.898L291.204 149.881C291.241 149.915 291.289 149.935 291.34 149.935C291.391 149.935 291.439 149.915 291.476 149.881C291.512 149.844 291.532 149.795 291.532 149.744C291.532 149.693 291.512 149.644 291.476 149.607L289.498 147.624H291.722C291.773 147.624 291.822 147.604 291.858 147.568C291.894 147.532 291.914 147.483 291.914 147.432C291.911 147.383 291.89 147.337 291.854 147.303C291.818 147.269 291.771 147.251 291.722 147.251Z" fill="#297FFF"/>
<path d="M353.569 194.092C353.558 193.627 353.5 193.164 353.396 192.71C353.05 191.408 352.27 189.834 350.987 189.441C349.662 189.034 348.383 188.492 347.169 187.824C346.938 183.696 347.883 179.472 346.854 175.471C346.469 174.008 345.836 172.606 345.666 171.109C345.455 169.245 345.962 167.258 345.221 165.541C344.637 164.185 343.354 163.23 341.975 162.73C340.596 162.229 339.109 162.095 337.645 161.96C335.801 161.81 329.831 161.101 327.749 162.753C327.605 162.865 327.476 162.994 327.365 163.138C327.319 163.202 327.278 163.268 327.242 163.338L327.223 163.369C327.181 163.449 327.146 163.533 327.119 163.619C327.09 163.714 327.068 163.81 327.054 163.908C327.054 163.939 327.054 163.97 327.054 164.001C327.054 164.031 327.054 164.135 327.054 164.205V164.309C327.054 164.378 327.054 164.447 327.054 164.52C327.054 164.593 327.054 164.574 327.054 164.601C327.081 164.948 327.131 165.294 327.131 165.637C327.135 165.808 327.119 165.978 327.085 166.145C326.957 166.599 326.74 167.023 326.447 167.393L326.378 167.493C326.335 167.555 326.293 167.612 326.255 167.674C326.216 167.736 326.186 167.782 326.155 167.836C326.124 167.89 326.093 167.924 326.066 167.974C326.029 168.038 325.996 168.103 325.967 168.171C325.967 168.209 325.924 168.244 325.909 168.282C325.861 168.386 325.822 168.495 325.794 168.606C325.704 168.94 325.696 169.292 325.771 169.63C325.874 170.062 326.052 170.472 326.297 170.843C326.393 171.001 326.497 171.155 326.604 171.309L326.873 171.675C326.823 172.032 326.796 172.392 326.793 172.753C326.793 173.958 327.066 175.148 327.592 176.233C328.117 177.317 328.882 178.268 329.827 179.014C329.98 180.64 329.963 182.277 329.777 183.9C329.743 184.239 329.701 184.581 329.655 184.92C329.608 185.259 329.574 185.482 329.528 185.764C328.966 185.844 328.393 185.801 327.849 185.636C327.598 185.524 327.342 185.425 327.081 185.34C325.963 185.059 324.822 186.176 323.715 185.837C323.715 185.891 323.685 185.941 323.665 185.991C323.434 185.847 323.169 185.768 322.897 185.764C322.24 185.733 321.706 185.255 321.23 184.805L319.766 183.422C319.671 183.338 319.586 183.242 319.513 183.138C319.434 182.988 319.375 182.829 319.336 182.664C319.09 181.867 318.495 181.232 317.918 180.627C317.809 180.489 317.664 180.384 317.5 180.323C317.436 180.313 317.371 180.313 317.308 180.323C317.268 180.269 317.226 180.218 317.181 180.169C317.081 180.054 316.975 179.946 316.862 179.845C316.163 179.198 316.094 178.644 315.487 177.92C314.957 177.23 314.477 176.503 314.05 175.745C314 175.34 313.931 174.924 313.846 174.505C313.653 173.544 313.371 172.603 313.005 171.694L312.237 169.988L312.148 170.077C311.591 169.245 310.996 168.791 310.462 168.898C309.567 169.083 309.125 170.824 309.267 173.099L309.574 175.41C309.574 175.467 309.601 175.525 309.617 175.583C309.561 175.857 309.533 176.135 309.532 176.415C309.532 176.738 309.832 176.977 309.989 177.265C310.241 177.657 310.375 178.113 310.373 178.579C310.354 178.744 310.304 178.902 310.297 179.064C310.317 179.425 310.443 179.773 310.658 180.065L312.578 183.299L312.963 183.977L312.986 184.008C313.107 184.244 313.284 184.448 313.5 184.601C313.576 185.411 313.79 186.201 314.134 186.938C314.2 187.084 314.273 187.223 314.349 187.361C314.866 188.212 315.474 189.004 316.163 189.722L317.077 190.75C317.98 191.759 318.883 192.771 319.862 193.703C320.213 194.077 320.637 194.375 321.107 194.577C321.337 194.67 321.588 194.699 321.833 194.664C322.079 194.628 322.311 194.528 322.505 194.373C322.505 194.851 322.505 195.328 322.505 195.806C322.648 195.814 322.786 195.861 322.904 195.941C323.023 196.021 323.118 196.131 323.18 196.26C323.242 196.39 323.268 196.533 323.256 196.676C323.244 196.818 323.195 196.955 323.112 197.072C322.305 199.148 321.491 201.243 320.269 203.102C321.132 203.614 321.931 204.225 322.651 204.924C323.119 205.443 323.534 206.006 323.892 206.606C323.927 206.891 323.954 207.172 323.969 207.453C324.253 212.043 322.482 216.598 320.896 220.973C320.438 222.212 319.939 223.51 319.977 224.8C319.676 224.986 319.389 225.193 319.117 225.42C319.432 226.244 319.309 226.979 319.274 227.861C319.263 228.39 319.155 228.912 318.956 229.401C318.789 229.741 318.604 230.071 318.402 230.391C317.407 232.151 317.188 234.241 316.989 236.251C316.87 237.464 317.338 238.947 316.789 240.033C315.84 241.896 314.999 243.883 314.868 245.955C314.864 246.421 314.804 246.885 314.691 247.337C314.572 247.722 314.361 248.049 314.253 248.427C314.143 248.932 314.117 249.453 314.177 249.967C314.25 251.812 313.976 253.656 313.37 255.4C312.89 256.774 312.359 258.245 312.736 259.659C311.809 260.634 311.237 261.894 311.111 263.236C311.101 263.579 311.06 263.92 310.988 264.256C310.871 264.599 310.716 264.928 310.527 265.238C309.754 266.65 309.392 268.251 309.482 269.858C308.33 271.426 307.753 273.359 307.411 275.28C307.07 277.201 306.92 279.157 306.482 281.056C305.898 283.566 304.841 286.104 304.634 288.676C303.389 289.473 302.851 291.017 302.613 292.476C302.375 293.936 302.337 295.468 301.726 296.816C301.411 297.517 300.958 298.144 300.658 298.86C300.448 299.431 300.293 300.02 300.197 300.62C300.012 301.56 299.851 302.607 300.078 303.508C299.752 303.854 299.372 304.144 298.952 304.367C299.014 304.128 299.064 303.889 299.106 303.647C298.115 304.548 296.317 304.232 295.525 305.314C295.288 305.663 295.195 306.09 295.267 306.507C295.339 306.923 295.569 307.295 295.91 307.543C296.157 307.695 296.425 307.81 296.705 307.886C298.626 308.502 300.6 309.122 302.575 308.795C302.808 308.77 303.034 308.698 303.239 308.583C303.496 308.393 303.708 308.149 303.858 307.867C304.154 307.397 304.45 306.927 304.742 306.458C305.449 306.669 306.169 306.838 306.897 306.962C306.97 307.578 307.023 308.194 307.05 308.81C307.435 308.887 307.949 308.91 308.13 308.552C308.185 308.417 308.207 308.27 308.195 308.125C308.195 307.851 308.234 307.489 308.257 307.12H308.333C309.506 307.167 310.672 306.931 311.733 306.431C311.322 303.019 312.678 299.684 313.854 296.458C315.095 293.062 316.159 289.604 317.231 286.146C317.999 283.713 318.848 281.356 319.601 278.919C320.549 275.838 321.5 272.758 322.455 269.678C322.87 268.322 323.289 266.982 323.765 265.635C324.768 262.907 325.958 260.253 327.327 257.691C327.711 256.963 328.095 256.243 328.41 255.488C328.794 254.568 329.067 253.606 329.374 252.654C330.044 250.703 330.85 248.801 331.787 246.963C331.814 246.913 331.833 246.867 331.86 246.821C332.171 248.095 332.482 249.389 332.689 250.671C332.97 252.244 332.992 253.851 332.755 255.431C332.57 256.505 332.221 257.568 332.263 258.657C332.321 260.163 333.124 261.53 333.519 262.982C333.774 264.068 333.918 265.177 333.95 266.293C334.057 268.026 334.994 269.97 334.334 271.576C332.278 276.662 333.273 282.407 332.102 287.748C331.499 290.489 329.651 293.065 329.797 295.869C329.899 297.858 330.073 299.842 330.319 301.822C330.378 302.446 330.541 303.056 330.799 303.627C330.953 303.928 331.129 304.216 331.326 304.49C331.157 304.555 331.014 304.729 330.892 305.094C330.577 306.057 330.892 307.251 331.744 307.79C332.092 307.976 332.467 308.106 332.855 308.175C333.377 308.324 333.917 308.399 334.46 308.398C334.629 308.389 334.798 308.368 334.964 308.337C335.557 308.587 336.164 308.805 336.781 308.991C336.781 309.149 336.812 309.307 336.831 309.465C336.832 309.547 336.85 309.629 336.884 309.704C336.919 309.779 336.969 309.845 337.03 309.9C337.126 309.945 337.232 309.963 337.338 309.954H339.424C339.424 309.781 339.424 309.603 339.424 309.43C339.663 309.455 339.904 309.43 340.132 309.355C340.36 309.281 340.571 309.16 340.749 308.999C340.934 308.763 341.065 308.49 341.133 308.198C341.702 306.265 342.267 304.331 342.828 302.395C343.5 300.256 343.78 298.012 343.653 295.772C342.912 288.676 344.541 281.556 344.011 274.441C343.692 270.164 343.911 265.864 344.664 261.642C344.837 260.687 345.048 259.716 345.125 258.765C345.294 256.971 345.086 255.157 345.213 253.374C345.255 252.751 345.34 252.131 345.417 251.511C345.943 247.663 346.219 243.785 346.243 239.902C346.231 238.615 346.151 237.33 346.005 236.051C346.405 235.949 346.769 235.735 347.053 235.435C347.395 234.988 347.307 234.361 347.303 233.791C347.303 232.428 347.875 231.142 348.336 229.856C348.928 228.082 349.413 226.274 349.789 224.442C350.185 222.965 350.402 221.446 350.434 219.917C350.434 219.763 350.426 219.609 350.411 219.455C350.556 219.355 350.676 219.223 350.764 219.07C350.865 218.845 350.927 218.604 350.949 218.358C351.087 217.376 351.229 216.39 351.367 215.405C351.47 214.699 351.571 213.994 351.671 213.291L352.893 204.747C352.996 204.003 353.104 203.264 353.208 202.525L353.526 200.315C353.561 200.053 353.599 199.791 353.626 199.544C354.564 197.973 353.669 195.879 353.569 194.092ZM343.377 226.082C342.924 225.004 342.501 223.899 342.609 222.736H342.566C342.667 222.378 342.65 221.997 342.516 221.65C342.397 221.369 342.19 221.13 342.063 220.849C341.927 220.506 341.856 220.14 341.856 219.771C341.76 217.429 341.945 215.084 342.405 212.786C342.455 212.517 342.509 212.243 342.559 211.974C342.72 211.881 342.867 211.765 342.997 211.631C343.199 211.4 343.366 211.141 343.492 210.861C343.926 209.987 344.322 209.098 344.687 208.193C344.806 207.9 344.979 207.561 345.275 207.488C345.213 209.741 345.444 212.039 344.529 214.072C344.356 214.4 344.226 214.75 344.145 215.112C344.061 215.686 344.299 216.267 344.214 216.837C344.172 217.134 344.045 217.407 343.995 217.7C343.957 217.843 343.958 217.994 343.997 218.138C344.036 218.281 344.113 218.412 344.218 218.516C344.269 218.552 344.325 218.58 344.383 218.601C344.36 218.755 344.341 218.913 344.326 219.063C344.295 219.378 344.28 219.675 344.26 219.86C344.172 220.802 344.137 221.748 344.157 222.694C344.157 223.714 344.195 224.734 344.18 225.774C344.194 226.073 344.144 226.371 344.034 226.648C343.958 226.791 343.859 226.921 343.742 227.033C343.63 226.687 343.507 226.382 343.377 226.082Z" fill="url(#paint0_linear_70_133)"/>
<path d="M313.052 181.405C314.224 181.164 314.623 178.272 313.943 174.945C313.263 171.618 311.761 169.116 310.589 169.356C309.417 169.597 309.018 172.489 309.698 175.816C310.378 179.143 311.88 181.645 313.052 181.405Z" fill="#FBBEBE"/>
<path d="M330.953 305.168C330.638 306.123 330.953 307.316 331.806 307.836C332.151 308.021 332.523 308.151 332.908 308.221C333.43 308.369 333.969 308.443 334.51 308.441C335.175 308.41 335.813 308.148 336.477 308.056C336.554 308.036 336.635 308.047 336.704 308.086C336.737 308.122 336.762 308.165 336.777 308.211C336.791 308.258 336.795 308.307 336.789 308.356C336.796 308.735 336.824 309.112 336.873 309.488C336.874 309.57 336.892 309.652 336.926 309.727C336.961 309.802 337.011 309.869 337.073 309.923C337.169 309.968 337.275 309.986 337.38 309.977H339.462C339.509 308.143 339.309 306.312 338.867 304.532C338.838 304.396 338.786 304.266 338.713 304.147C338.537 303.953 338.304 303.819 338.049 303.762C337.54 303.55 336.99 303.454 336.439 303.481C335.767 303.57 335.206 304.005 334.633 304.367C334.061 304.729 333.281 305.048 332.586 304.863C331.89 304.679 331.31 304.097 330.953 305.168Z" fill="#3F3D56"/>
<path d="M300.381 303.477C299.796 304.105 299.078 304.595 298.28 304.91L297.926 305.079C297.878 305.098 297.836 305.131 297.807 305.175C297.801 305.205 297.801 305.236 297.807 305.266C297.814 305.296 297.827 305.324 297.846 305.349C298.14 305.804 298.574 306.152 299.083 306.337C299.592 306.523 300.148 306.537 300.666 306.377C300.894 306.319 301.106 306.208 301.284 306.053C301.577 305.705 301.745 305.268 301.76 304.813C301.877 304.344 301.857 303.851 301.703 303.393C301.169 302.187 300.973 302.734 300.381 303.477Z" fill="#FBBEBE"/>
<path d="M308.364 308.221C308.376 308.367 308.354 308.513 308.299 308.648C308.119 309.003 307.615 308.983 307.223 308.906C307.164 307.6 307.006 306.3 306.751 305.017C306.006 304.983 305.468 305.691 305.068 306.327L304.039 307.963C303.89 308.245 303.68 308.49 303.424 308.679C303.218 308.792 302.993 308.864 302.759 308.891C300.793 309.218 298.806 308.598 296.909 307.982C296.629 307.907 296.361 307.793 296.113 307.644C295.775 307.394 295.546 307.023 295.474 306.608C295.402 306.193 295.494 305.767 295.729 305.418C296.525 304.34 298.311 304.648 299.302 303.754C299.199 304.383 299.029 304.999 298.795 305.591C300.12 305.391 301.012 304.174 302.08 303.362C302.348 303.134 302.671 302.98 303.017 302.915C303.276 302.893 303.536 302.921 303.785 302.996C305.017 303.307 306.169 303.875 307.166 304.663C307.569 304.983 308.199 305.433 308.376 305.926C308.564 306.515 308.364 307.593 308.364 308.221Z" fill="#3F3D56"/>
<path d="M334.791 181.178C339.174 181.178 342.728 177.616 342.728 173.222C342.728 168.829 339.174 165.267 334.791 165.267C330.407 165.267 326.854 168.829 326.854 173.222C326.854 177.616 330.407 181.178 334.791 181.178Z" fill="#FBBEBE"/>
<path d="M350.427 220.191C350.395 221.712 350.179 223.223 349.785 224.692C349.409 226.517 348.924 228.317 348.333 230.083C347.876 231.365 347.303 232.651 347.307 234.01C347.307 234.576 347.399 235.204 347.054 235.651C346.746 235.964 346.358 236.187 345.932 236.294C345.719 236.35 345.523 236.456 345.359 236.602C345.195 236.749 345.067 236.932 344.987 237.137C344.626 236.597 344.356 236.001 344.188 235.373C343.499 233.258 342.859 231.131 342.267 228.993C342.213 228.87 342.189 228.736 342.199 228.601C342.208 228.467 342.25 228.337 342.321 228.223C342.418 228.138 342.532 228.074 342.655 228.034C343.049 227.873 343.409 227.641 343.719 227.349C343.864 227.22 343.984 227.064 344.073 226.891C344.184 226.615 344.235 226.318 344.222 226.021C344.222 225 344.222 223.984 344.195 222.963C344.179 222.021 344.215 221.079 344.303 220.141C344.303 219.956 344.338 219.66 344.368 219.344C344.426 218.739 344.541 218.038 344.868 217.804C345.356 217.476 346.815 217.915 347.369 217.992C348.321 218.123 349.289 218.277 350.219 218.458C350.354 219.026 350.424 219.607 350.427 220.191Z" fill="#3F3D56"/>
<path d="M318.379 182.129C318.072 182.745 317.334 183.041 316.766 183.43L314.818 184.77C314.688 184.888 314.535 184.978 314.37 185.034C314.204 185.091 314.028 185.114 313.854 185.101C313.695 185.043 313.55 184.953 313.427 184.837C313.303 184.721 313.204 184.582 313.135 184.427C313.137 184.417 313.137 184.407 313.135 184.397L312.732 183.719L310.811 180.492C310.598 180.203 310.473 179.858 310.454 179.499C310.454 179.333 310.511 179.179 310.527 179.014C310.532 178.549 310.398 178.093 310.143 177.704C309.989 177.416 309.682 177.177 309.689 176.854C309.675 176.429 309.748 176.005 309.904 175.61C310.106 175.244 310.395 174.935 310.746 174.709C310.926 174.578 311.111 174.455 311.303 174.324C311.405 174.254 311.518 174.202 311.637 174.17C311.956 174.104 312.271 174.37 312.594 174.382C313.98 175.313 314.514 177.077 315.606 178.348C316.22 179.071 316.282 179.626 316.977 180.273C317.088 180.373 317.196 180.481 317.3 180.592C317.437 180.743 317.553 180.911 317.645 181.093C317.772 181.424 318.537 181.813 318.379 182.129Z" fill="#3F3D56"/>
<path d="M332.002 181.181C332.574 182.394 333.02 183.727 332.854 185.059C332.821 185.42 332.706 185.769 332.52 186.079C331.967 186.93 330.807 187.084 329.797 187.134C329.584 187.116 329.369 187.141 329.166 187.207C328.963 187.273 328.775 187.38 328.613 187.519C328.478 187.716 328.412 187.952 328.425 188.19C328.439 188.429 328.53 188.656 328.686 188.836C329.011 189.184 329.414 189.448 329.862 189.606C331.46 190.311 333.185 190.892 334.921 190.731C335.728 190.654 336.512 190.419 337.315 190.299C338.19 190.204 339.07 190.156 339.95 190.153C340.995 190.115 342.036 190.011 343.077 189.907L345.835 189.633C345.986 189.635 346.132 189.582 346.246 189.483C346.45 189.244 346.189 188.894 345.935 188.713C344.472 187.627 342.608 186.88 341.775 185.248C341.391 184.478 341.271 183.561 340.987 182.729C340.703 181.898 340.25 181.147 340.073 180.3C339.979 179.557 339.936 178.808 339.946 178.059C339.956 177.303 339.681 176.572 339.178 176.01C338.628 175.498 337.833 175.367 337.088 175.336C335.252 175.256 333.296 175.695 331.994 176.992C331.644 177.343 331.345 177.762 330.984 178.078C330.622 178.394 330.131 178.486 330.369 178.902C330.607 179.318 331.076 179.576 331.329 179.942C331.586 180.336 331.811 180.751 332.002 181.181Z" fill="#FBBEBE"/>
<path d="M347.649 192.383C347.164 195.348 346.376 198.255 345.298 201.058C344.755 202.324 344.293 203.622 343.915 204.947C343.619 206.14 343.676 207.419 343.404 208.616C343.066 210.106 342.727 211.6 342.455 213.102C341.997 215.395 341.814 217.735 341.909 220.072C341.91 220.44 341.98 220.804 342.117 221.146C342.243 221.423 342.447 221.662 342.566 221.947C342.655 222.197 342.692 222.463 342.673 222.728C342.655 222.993 342.582 223.252 342.459 223.487C342.261 223.928 341.994 224.333 341.667 224.688C338.087 225.759 334.257 225.408 330.526 225.636C327.088 225.843 323.611 226.552 320.223 225.963C319.839 224.423 320.481 222.809 321.03 221.308C322.624 216.945 324.387 212.401 324.103 207.831C324.073 207.298 324.013 206.767 323.923 206.241C323.366 203.002 323.973 199.648 324.945 196.51C325.548 194.554 325.521 192.471 325.382 190.434C325.314 189.773 325.305 189.107 325.356 188.443C325.411 187.766 325.662 187.12 326.078 186.584C326.078 186.557 326.112 186.53 326.132 186.503C326.151 186.476 326.301 186.48 326.42 186.503C326.45 186.516 326.483 186.522 326.516 186.522C326.549 186.522 326.581 186.516 326.612 186.503L326.654 186.476C326.67 186.464 326.69 186.458 326.71 186.458C326.73 186.458 326.749 186.464 326.765 186.476C326.854 186.53 326.904 186.715 327.096 186.749C327.38 186.792 327.666 186.819 327.953 186.83C328.298 186.84 328.64 186.889 328.974 186.976H329.02C329.52 187.061 330.033 187.017 330.511 186.849C330.829 186.77 331.136 186.651 331.425 186.495C331.51 186.403 332.04 186.318 332.148 186.253C332.497 186.041 332.42 185.047 332.493 184.639C332.534 184.23 332.631 183.828 332.781 183.446C332.956 183.163 333.198 182.928 333.484 182.761C333.771 182.594 334.094 182.5 334.426 182.487C335.087 182.471 335.748 182.53 336.396 182.664C337.829 182.868 339.297 182.833 340.703 183.164C341.41 183.33 342.182 183.58 342.831 183.257C343.008 183.299 343.035 183.453 343.035 183.642C343.018 183.821 342.982 183.998 342.927 184.169C342.681 185.232 343.515 186.21 344.283 186.98C344.608 187.343 344.991 187.649 345.417 187.885C345.801 188.062 346.185 188.135 346.569 188.328C346.88 188.494 347.145 188.737 347.337 189.033C347.559 189.372 347.708 189.753 347.775 190.153C347.858 190.898 347.815 191.652 347.649 192.383Z" fill="#3F3D56"/>
<path opacity="0.1" d="M347.649 192.383C347.164 195.348 346.376 198.255 345.298 201.058C344.755 202.324 344.293 203.622 343.915 204.947C343.619 206.14 343.676 207.419 343.404 208.616C343.066 210.106 342.727 211.6 342.455 213.102C342.374 213.148 342.29 213.191 342.205 213.229C341.727 213.458 341.221 213.621 340.699 213.714C339.763 213.828 338.814 213.797 337.887 213.622L332.405 212.887C330.215 212.59 327.883 212.232 326.258 210.746C325.356 209.929 324.764 208.851 324.115 207.812C324.085 207.278 324.025 206.747 323.934 206.221C323.377 202.983 323.984 199.629 324.956 196.491C325.559 194.535 325.532 192.452 325.394 190.415C325.326 189.754 325.317 189.087 325.367 188.424C325.423 187.747 325.674 187.101 326.089 186.564C326.202 186.531 326.316 186.506 326.431 186.487C326.509 186.472 326.587 186.461 326.666 186.457H326.777C326.906 186.457 327.035 186.473 327.161 186.503C327.423 186.586 327.679 186.685 327.929 186.799H327.976C328.305 186.908 328.651 186.958 328.997 186.946C329.505 186.946 330.027 186.865 330.534 186.83C331.161 186.732 331.802 186.847 332.355 187.157C332.712 187.445 333.051 187.755 333.369 188.085C333.754 188.388 334.186 188.624 334.649 188.782C337.955 190.047 341.624 189.97 344.875 188.567C345.187 188.389 345.541 188.298 345.901 188.305C346.166 188.357 346.417 188.465 346.638 188.621C346.869 188.755 347.095 188.886 347.33 189.006C347.551 189.345 347.7 189.726 347.768 190.126C347.856 190.88 347.815 191.643 347.649 192.383Z" fill="black"/>
<path d="M350.995 189.834C349.465 189.365 347.995 188.719 346.615 187.908C346.394 187.753 346.143 187.646 345.878 187.593C345.518 187.588 345.163 187.679 344.848 187.854C341.599 189.258 337.931 189.335 334.626 188.07C334.164 187.91 333.732 187.674 333.346 187.373C333.027 187.044 332.688 186.734 332.332 186.445C331.068 185.625 329.32 186.588 327.907 186.06C327.656 185.948 327.399 185.849 327.138 185.764C326.02 185.482 324.883 186.599 323.784 186.26C323.376 187.374 323.073 188.524 322.882 189.695C322.725 191.04 322.642 192.392 322.632 193.746C322.632 194.558 322.594 195.371 322.632 196.183C322.767 196.205 322.897 196.255 323.012 196.33C323.127 196.405 323.225 196.503 323.3 196.618C323.351 196.752 323.371 196.896 323.361 197.039C323.35 197.182 323.309 197.321 323.239 197.446C322.436 199.514 321.622 201.605 320.404 203.457C321.262 203.969 322.059 204.579 322.778 205.274C324.123 206.699 324.783 208.697 326.235 210.014C327.872 211.496 330.204 211.858 332.382 212.151L337.864 212.887C338.792 213.061 339.742 213.093 340.68 212.983C341.2 212.888 341.705 212.723 342.182 212.494C342.493 212.363 342.778 212.175 343.02 211.939C343.222 211.709 343.389 211.449 343.515 211.169C343.949 210.299 344.345 209.409 344.71 208.508C344.837 208.189 345.029 207.815 345.374 207.788C347.411 205.948 349.331 204.061 351.367 202.221C352.186 201.541 352.919 200.765 353.553 199.91C354.564 198.412 353.645 196.291 353.553 194.481C353.542 194.018 353.484 193.558 353.38 193.106C353.05 191.793 352.274 190.222 350.995 189.834Z" fill="#297FFF"/>
<path opacity="0.1" d="M318.38 182.129C318.072 182.745 317.335 183.041 316.766 183.43L314.818 184.77C314.688 184.888 314.536 184.978 314.37 185.034C314.204 185.091 314.029 185.114 313.854 185.101C313.696 185.043 313.55 184.953 313.427 184.837C313.304 184.721 313.205 184.582 313.136 184.427C313.136 184.339 313.136 184.243 313.136 184.15C313.121 183.839 313.163 183.527 313.259 183.23C313.449 182.795 313.745 182.413 314.119 182.121C314.842 181.435 315.703 180.91 316.643 180.581C316.79 180.524 316.949 180.508 317.104 180.535C317.164 180.55 317.221 180.575 317.273 180.608C317.411 180.758 317.527 180.926 317.619 181.108C317.773 181.424 318.537 181.813 318.38 182.129Z" fill="black"/>
<path d="M322.966 186.187C322.313 186.156 321.779 185.683 321.303 185.232L319.847 183.877C319.75 183.794 319.664 183.698 319.593 183.592C319.515 183.442 319.455 183.283 319.417 183.118C319.108 182.34 318.624 181.645 318.003 181.085C317.895 180.947 317.749 180.843 317.584 180.785C317.428 180.756 317.267 180.772 317.119 180.831C316.179 181.159 315.318 181.684 314.595 182.371C314.222 182.664 313.926 183.045 313.735 183.48C313.638 183.777 313.597 184.089 313.612 184.4C313.621 185.418 313.849 186.421 314.28 187.342C314.346 187.485 314.419 187.627 314.496 187.766C315.008 188.615 315.614 189.404 316.301 190.118L317.215 191.143C318.114 192.152 319.013 193.16 319.989 194.088C320.339 194.462 320.763 194.759 321.234 194.959C321.47 195.055 321.729 195.085 321.981 195.044C322.233 195.003 322.469 194.894 322.663 194.728C322.847 194.514 322.985 194.265 323.07 193.996C323.662 192.456 324.223 190.854 324.257 189.194C324.265 188.53 324.237 187.865 324.173 187.204C324.115 186.503 323.619 186.229 322.966 186.187Z" fill="#297FFF"/>
<path d="M346.247 240.094C346.224 243.967 345.95 247.835 345.424 251.673C345.348 252.293 345.263 252.912 345.221 253.532C345.094 255.331 345.302 257.136 345.132 258.923C345.044 259.89 344.844 260.848 344.675 261.792C343.925 266.002 343.705 270.291 344.022 274.556C344.552 281.653 342.927 288.753 343.665 295.83C343.754 297.206 343.678 298.588 343.438 299.946C343.301 300.789 343.102 301.62 342.843 302.434C342.282 304.362 341.719 306.287 341.153 308.21C341.086 308.502 340.955 308.776 340.768 309.01C340.572 309.18 340.343 309.306 340.094 309.38C339.846 309.454 339.584 309.473 339.328 309.438C337.111 309.369 335.025 308.41 333.012 307.474C332.781 307.383 332.566 307.252 332.378 307.089C331.96 306.654 331.994 305.969 331.81 305.395C331.625 304.821 331.126 304.282 330.842 303.693C330.608 303.136 330.466 302.544 330.423 301.941C330.167 299.969 329.993 297.99 329.9 296.003C329.754 293.208 331.598 290.636 332.205 287.917C333.358 282.573 332.382 276.843 334.43 271.772C335.075 270.17 334.138 268.23 334.046 266.505C334.012 265.392 333.868 264.285 333.615 263.201C333.231 261.753 332.421 260.39 332.363 258.888C332.321 257.803 332.67 256.744 332.851 255.673C333.09 254.098 333.068 252.494 332.785 250.926C332.582 249.632 332.271 248.338 331.96 247.075L331.89 247.218C330.954 249.051 330.149 250.949 329.482 252.897C329.174 253.84 328.905 254.803 328.521 255.719C328.206 256.49 327.818 257.194 327.438 257.918C326.074 260.471 324.886 263.115 323.884 265.831C323.408 267.163 322.989 268.526 322.574 269.862L319.728 279.104C318.959 281.533 318.118 283.882 317.365 286.308C316.301 289.773 315.237 293.208 314 296.596C312.847 299.812 311.476 303.142 311.887 306.538C310.828 307.037 309.664 307.274 308.495 307.228C306.515 307.052 304.572 306.58 302.732 305.826C301.999 305.553 301.238 305.245 300.742 304.64C299.89 303.597 300.101 302.068 300.358 300.74C300.455 300.141 300.61 299.553 300.819 298.984C301.111 298.275 301.588 297.648 301.887 296.947C302.49 295.603 302.529 294.082 302.767 292.623C303.005 291.163 303.535 289.623 304.78 288.83C304.991 286.266 306.044 283.736 306.624 281.229C307.062 279.331 307.208 277.379 307.554 275.453C307.899 273.528 308.456 271.603 309.617 270.043C309.525 268.435 309.887 266.834 310.661 265.423C310.849 265.113 311.002 264.784 311.119 264.441C311.19 264.106 311.231 263.766 311.242 263.424C311.369 262.086 311.939 260.83 312.863 259.855C312.479 258.449 313.013 256.982 313.493 255.619C314.098 253.88 314.371 252.042 314.299 250.202C314.24 249.688 314.265 249.167 314.372 248.662C314.48 248.276 314.691 247.949 314.814 247.58C314.924 247.127 314.982 246.663 314.987 246.197C315.137 244.114 315.978 242.15 316.908 240.291C317.461 239.205 316.992 237.73 317.108 236.521C317.307 234.511 317.526 232.432 318.521 230.68C318.706 230.349 318.906 230.033 319.071 229.69C319.271 229.201 319.379 228.679 319.39 228.15C319.424 227.268 319.547 226.537 319.232 225.716C321.287 224.003 324.092 223.522 326.766 223.406C329.439 223.291 332.144 223.533 334.76 222.963C335.528 222.79 336.297 222.551 337.107 222.436C338.947 222.166 340.814 222.586 342.632 223.002C342.505 224.157 342.927 225.266 343.4 226.34C345.245 230.692 346.212 235.366 346.247 240.094Z" fill="#33313F"/>
<path opacity="0.1" d="M337.2 240.976L332.786 250.926C332.582 249.632 332.271 248.338 331.96 247.075L331.891 247.218V247.01L334.295 241.707L337.2 240.976Z" fill="black"/>
<path opacity="0.1" d="M350.426 220.191C350.172 220.382 349.868 220.495 349.551 220.518C349.064 220.535 348.578 220.469 348.114 220.322L344.656 219.455C344.548 219.429 344.442 219.391 344.341 219.344C344.399 218.739 344.514 218.038 344.841 217.804C345.329 217.476 346.788 217.915 347.342 217.992C348.294 218.123 349.262 218.277 350.192 218.458C350.336 219.025 350.415 219.606 350.426 220.191Z" fill="black"/>
<path d="M353.35 197.28C353.423 197.6 353.526 197.916 353.588 198.239C353.691 199.033 353.664 199.838 353.507 200.623L353.192 202.825L352.877 205.039L351.659 213.56L351.36 215.67L350.937 218.616C350.917 218.861 350.855 219.101 350.753 219.325C350.627 219.534 350.451 219.709 350.241 219.833C350.031 219.957 349.794 220.027 349.55 220.037C349.064 220.052 348.578 219.986 348.113 219.841L344.656 218.97C344.504 218.943 344.36 218.884 344.233 218.797C344.128 218.694 344.051 218.564 344.012 218.421C343.973 218.278 343.972 218.128 344.01 217.985C344.06 217.692 344.187 217.419 344.229 217.126C344.314 216.556 344.076 215.971 344.16 215.405C344.243 215.044 344.372 214.696 344.544 214.369C345.697 211.816 345.029 208.836 345.42 206.063C345.773 203.881 346.693 201.831 348.086 200.118C348.947 199.037 349.935 198.065 351.029 197.223C351.459 196.888 352.143 196.198 352.685 196.067C353.38 195.921 353.234 196.795 353.35 197.28Z" fill="#297FFF"/>
<path d="M327.184 164.112C326.931 164.921 327.326 165.81 327.146 166.634C326.95 167.543 326.097 168.174 325.855 169.087C325.471 170.477 326.647 171.744 327.507 172.899C330.696 177.188 330.277 183.126 329.186 188.359C328.308 192.557 327.094 196.678 325.555 200.68C325.075 201.924 324.545 203.187 323.6 204.119C325.367 203.611 327.246 203.099 329.017 203.591C331.26 204.215 333.196 206.398 335.471 205.902C336.838 205.597 337.799 204.381 339.028 203.707C341.333 202.463 344.111 203.245 346.681 203.645C347.234 203.776 347.814 203.747 348.352 203.561C348.763 203.339 349.112 203.017 349.366 202.625C350.513 201.15 351.2 199.368 351.341 197.504C351.401 196.575 351.265 195.644 350.939 194.773C350.614 193.901 350.108 193.109 349.454 192.448C348.909 191.932 348.256 191.516 347.837 190.908C347.43 190.197 347.211 189.394 347.203 188.574C346.9 184.339 347.929 180.015 346.869 175.918C346.485 174.458 345.859 173.061 345.689 171.567C345.478 169.707 345.981 167.716 345.244 166.014C344.664 164.663 343.384 163.704 342.005 163.211C340.626 162.718 339.151 162.58 337.687 162.441C335.582 162.264 328.064 161.359 327.184 164.112Z" fill="#33313F"/>
<g opacity="0.1">
<path opacity="0.1" d="M329.186 188.359C328.312 192.54 327.105 196.643 325.575 200.63C325.84 200.103 326.063 199.548 326.274 198.998C327.814 194.996 329.028 190.875 329.904 186.676C330.999 181.439 331.418 175.51 328.229 171.216C327.461 170.192 326.474 169.083 326.508 167.882C326.224 168.245 326.003 168.654 325.855 169.091C325.471 170.481 326.647 171.748 327.507 172.903C330.696 177.188 330.277 183.126 329.186 188.359Z" fill="black"/>
<path opacity="0.1" d="M327.192 166.245C327.5 165.862 327.73 165.421 327.868 164.948C327.927 164.376 327.912 163.798 327.822 163.23C327.526 163.454 327.304 163.761 327.184 164.112C326.957 164.794 327.219 165.533 327.192 166.245Z" fill="black"/>
<path opacity="0.1" d="M350.088 200.931C349.834 201.322 349.485 201.642 349.074 201.863C348.537 202.053 347.956 202.082 347.403 201.947C344.833 201.562 342.025 200.769 339.75 202.013C338.517 202.683 337.561 203.899 336.189 204.207C333.919 204.716 331.983 202.533 329.739 201.897C328.149 201.454 326.474 201.82 324.872 202.282C324.553 202.963 324.124 203.585 323.6 204.123C325.367 203.615 327.246 203.102 329.017 203.595C331.26 204.219 333.197 206.402 335.471 205.906C336.838 205.601 337.799 204.385 339.028 203.711C341.333 202.467 344.111 203.249 346.681 203.649C347.234 203.78 347.814 203.751 348.352 203.564C348.763 203.343 349.112 203.021 349.366 202.629C350.062 201.708 350.6 200.678 350.956 199.579C350.7 200.05 350.41 200.502 350.088 200.931Z" fill="black"/>
</g>
</g>
<defs>
<linearGradient id="paint0_linear_70_133" x1="295.268" y1="235.812" x2="354.045" y2="235.812" gradientUnits="userSpaceOnUse">
<stop stop-color="#808080" stop-opacity="0.25"/>
<stop offset="0.54" stop-color="#808080" stop-opacity="0.12"/>
<stop offset="1" stop-color="#808080" stop-opacity="0.1"/>
</linearGradient>
<clipPath id="clip0_70_133">
<rect width="448" height="310" fill="white"/>
</clipPath>
</defs>
</svg>
