<svg width="35" height="35" viewBox="0 0 35 35" fill="none" xmlns="http://www.w3.org/2000/svg">
<path d="M25.9424 9.15333C25.6211 9.30372 25.334 9.59083 25.2314 9.86426C25.1289 10.1377 25.1357 10.6982 25.252 10.958C25.3066 11.0811 26.4414 12.2705 27.8154 13.6377L30.2832 16.0986L15.6064 16.1328L0.922852 16.167L0.663086 16.3311C0.519531 16.4199 0.321289 16.6182 0.21875 16.7686C0.0615234 17.001 0.0341797 17.124 0.0341797 17.5C0.0341797 17.876 0.0615234 17.999 0.21875 18.2315C0.321289 18.3818 0.519531 18.5801 0.663086 18.669L0.922852 18.833L15.6064 18.8672L30.2832 18.9014L27.8154 21.3623C26.4414 22.7295 25.3066 23.919 25.252 24.042C25.1357 24.3018 25.1289 24.8623 25.2314 25.1357C25.4775 25.7988 26.373 26.1543 27.0156 25.8535C27.3096 25.7168 34.5625 18.5938 34.8086 18.1973C35.041 17.8213 35.0342 17.1445 34.7881 16.7754C34.501 16.3447 27.3096 9.28321 27.0156 9.14649C26.6875 8.98926 26.2842 8.9961 25.9424 9.15333Z" fill="#14233D"/>
</svg>
