<svg width="30" height="25" viewBox="0 0 30 25" fill="none" xmlns="http://www.w3.org/2000/svg">
<path d="M7.10372 0.0530167C6.8865 0.136156 6.69276 0.307329 6.61057 0.488281C6.57534 0.56653 6.54599 0.918655 6.54599 1.28056V1.93101L4.8317 1.95057C3.14677 1.96524 3.0998 1.97013 2.66536 2.09729C1.44423 2.4543 0.592955 3.15855 0.164384 4.16602L0 4.55727V13.4826V22.408L0.164384 22.7992C0.592955 23.8067 1.43836 24.506 2.66536 24.868L3.11155 25H15H26.8885L27.3581 24.8631C28.5675 24.506 29.407 23.8018 29.8415 22.7797L30 22.408V13.4826V4.55727L29.8415 4.18558C29.407 3.16344 28.5675 2.45919 27.3581 2.10218C26.8943 1.97013 26.8767 1.96524 25.1742 1.95057L23.4599 1.93101L23.4423 1.2072C23.4247 0.414923 23.3953 0.341562 23.0196 0.111704C22.7906 -0.0301247 22.2387 -0.0301247 22.0098 0.111704C21.6341 0.341562 21.6047 0.414923 21.5871 1.21209L21.5695 1.94079H15H8.43053L8.41292 1.21209C8.3953 0.419813 8.36595 0.341564 8.00196 0.116596C7.80235 -0.00566864 7.33855 -0.0399055 7.10372 0.0530167ZM6.55773 4.03886C6.57534 4.61595 6.62818 4.72844 6.98043 4.94362C7.20939 5.08545 7.76125 5.08545 7.99022 4.94362C8.34247 4.72844 8.3953 4.61595 8.41292 4.03886L8.4364 3.50578H15H21.5636L21.5871 4.03886C21.6047 4.61595 21.6575 4.72844 22.0098 4.94362C22.2387 5.08545 22.7906 5.08545 23.0196 4.94362C23.3718 4.72844 23.4247 4.61595 23.4423 4.03886L23.4658 3.50089L25.0568 3.51557L26.6536 3.53024L26.9883 3.66718C27.411 3.83835 27.7515 4.122 27.9569 4.47412C28.1213 4.75289 28.1213 4.75778 28.1389 5.88751L28.1566 7.02702H15.0059H1.84932V5.98532C1.84932 5.21261 1.8728 4.88004 1.93151 4.70398C2.1135 4.21003 2.62427 3.76499 3.21722 3.59382C3.48141 3.52046 3.73973 3.51068 5.03131 3.50578H6.53425L6.55773 4.03886ZM28.1389 15.3997L28.1213 22.2124L27.9628 22.4813C27.7573 22.8286 27.3933 23.1318 26.9824 23.303L26.6536 23.435H15H3.34638L3.02348 23.303C2.60665 23.1318 2.24266 22.8286 2.03718 22.4862L1.87867 22.2124L1.86106 15.3997L1.84932 8.59202H15H28.1507L28.1389 15.3997Z" fill="#297FFF"/>
</svg>
