<svg width="20" height="25" viewBox="0 0 20 25" fill="none" xmlns="http://www.w3.org/2000/svg">
<path d="M8.93996 0.0313263C7.50443 0.192602 6.06406 0.67643 4.90887 1.37529C4.15968 1.8298 3.71017 2.18656 3.03349 2.86098C2.0813 3.81886 1.54962 4.5666 0.979277 5.76884C0.355762 7.09325 0.0657558 8.27594 0.00775446 9.72743C-0.0792475 12.0048 0.568434 14.1503 1.8203 15.7386C1.97013 15.9243 3.75367 18.0502 5.77889 20.4596C9.69398 25.1122 9.59247 24.9998 9.99848 24.9998C10.4045 24.9998 10.303 25.1073 14.2181 20.4596C16.2433 18.0502 18.0268 15.9243 18.1767 15.7386C19.9989 13.427 20.5064 9.94246 19.4672 6.8489C19.2739 6.2771 18.7857 5.24591 18.457 4.7181C16.9055 2.21588 14.4259 0.554251 11.55 0.0948582C10.9797 0.00688934 9.48614 -0.0322075 8.93996 0.0313263ZM11.1102 1.80536C14.2374 2.22565 16.8281 4.40532 17.8287 7.45002C18.167 8.47143 18.2347 8.90639 18.2347 10.0695C18.2395 11.2522 18.1767 11.7165 17.8722 12.6451C17.645 13.3586 17.3453 13.9499 16.9393 14.4924C16.5188 15.0544 10.0517 22.7272 9.99848 22.7272C9.94532 22.7272 3.47817 15.0544 3.06732 14.5022C2.49698 13.7398 2.11514 12.8454 1.87346 11.7067C1.7768 11.262 1.76229 11.0518 1.76229 10.1184C1.76229 9.18495 1.7768 8.97481 1.86863 8.53008C2.57431 5.23125 4.85087 2.78768 7.98294 1.97641C8.88196 1.74671 10.1387 1.6783 11.1102 1.80536Z" fill="#297FFF"/>
<path d="M8.90723 5.2117C7.04775 5.4414 5.51722 6.88799 5.01009 8.88195C4.92328 9.22405 4.90958 9.40976 4.90958 10.0695C4.90958 10.7293 4.92328 10.915 5.01466 11.2669C5.47153 13.0947 6.81931 14.4728 8.52802 14.8638C8.99403 14.9713 9.90778 14.9713 10.3738 14.8638C12.0916 14.4728 13.4211 13.1044 13.8917 11.2571C14.0288 10.7097 14.0379 9.4733 13.91 8.94548C13.412 6.88799 11.8723 5.4414 9.93062 5.20682C9.46918 5.15306 9.38694 5.15306 8.90723 5.2117ZM10.319 7.06393C11.0682 7.33273 11.6942 7.88986 12.0414 8.60827C12.279 9.09699 12.3749 9.50262 12.3749 10.0549C12.3749 10.6315 12.3109 10.915 12.0688 11.4575C11.6805 12.3274 10.922 12.9529 10.0357 13.1435C9.59254 13.2413 9.30928 13.2413 8.86611 13.1435C7.97977 12.9529 7.22136 12.3274 6.83302 11.4575C6.59087 10.915 6.52691 10.6315 6.52691 10.0549C6.52691 9.50262 6.62285 9.09699 6.86043 8.60827C7.26705 7.76279 8.07572 7.13724 8.99403 6.94664C9.25902 6.89288 10.0266 6.9613 10.319 7.06393Z" fill="#297FFF"/>
</svg>
