<svg width="25" height="26" viewBox="0 0 25 26" fill="none" xmlns="http://www.w3.org/2000/svg">
<path d="M11.2725 0.0541096C8.19244 0.340744 5.11241 1.93548 3.07469 4.29631C-1.87107 10.0394 -0.714103 18.701 5.56581 22.9015C11.2985 26.732 19.0585 25.179 22.8942 19.4359C27.0947 13.1403 24.786 4.62464 17.9693 1.2684C15.9368 0.262571 13.5864 -0.159565 11.2725 0.0541096ZM13.5447 1.72181C15.645 1.93548 17.6358 2.74327 19.293 4.05137C19.4963 4.20771 19.908 4.58816 20.2103 4.89564C21.5236 6.21937 22.4565 7.82974 22.9463 9.6173C23.2382 10.6805 23.3111 11.2433 23.3111 12.5045C23.3111 13.3436 23.2851 13.7657 23.2121 14.193C22.1021 20.8847 15.4261 24.9028 8.97938 22.766C8.41653 22.5784 7.35859 22.0781 6.81659 21.7394C5.06551 20.6606 3.64275 19.0867 2.75158 17.2418C1.51644 14.6829 1.32361 11.8062 2.20958 9.11699C3.28837 5.83893 5.84724 3.28006 9.10967 2.2169C10.5845 1.73744 12.0855 1.57067 13.5447 1.72181Z" fill="#297FFF"/>
<path d="M12.1063 5.94837C11.7832 6.14119 11.6633 6.39656 11.6633 6.93856V7.38675L11.3923 7.44929C11.2412 7.48577 10.9233 7.60564 10.6888 7.71508C9.39109 8.33004 8.86994 9.6173 9.34419 11.0244C9.51617 11.5299 9.74548 11.8843 10.1363 12.2491C10.5428 12.6244 11.0796 12.8954 12.1324 13.2602C13.576 13.7605 13.9929 14.0315 14.1128 14.5474C14.1961 14.8914 14.1545 15.2666 14.0137 15.4699C13.5708 16.09 12.1167 16.2412 11.2985 15.7461C11.0275 15.5845 10.8295 15.2458 10.8295 14.9487C10.8295 14.5631 10.4178 14.1722 10.0113 14.1722C9.60998 14.1722 9.25559 14.4588 9.18263 14.8341C9.1253 15.1415 9.23996 15.7148 9.44321 16.1317C9.77154 16.7884 10.5741 17.3825 11.3767 17.5649L11.6529 17.6275L11.6738 18.1382C11.6842 18.5551 11.7102 18.675 11.7988 18.7948C12.1793 19.3056 12.8151 19.3056 13.1955 18.7948C13.2841 18.675 13.3102 18.5551 13.3206 18.1382L13.3414 17.6327L13.6802 17.5441C14.4463 17.3408 15.1811 16.8197 15.5199 16.236C15.9316 15.5168 15.9264 14.4849 15.5147 13.6146C15.2854 13.1247 14.7017 12.5566 14.1388 12.2596C13.9095 12.1397 13.3362 11.9104 12.8672 11.7488C11.2516 11.1964 10.9233 10.9462 10.8503 10.2166C10.7826 9.59645 11.137 9.20559 11.9135 9.0336C12.9245 8.80951 14.0398 9.20559 14.1388 9.83097C14.1545 9.94041 14.1805 10.1124 14.1961 10.2114C14.217 10.3209 14.2952 10.4616 14.4202 10.5814C14.9622 11.1234 15.8326 10.7378 15.8326 9.95605C15.8326 9.02839 15.2489 8.16328 14.3212 7.7255C14.0763 7.60564 13.7532 7.48577 13.6072 7.44929L13.331 7.38675V6.94898C13.331 6.42262 13.2529 6.21416 12.9975 6.01612C12.7317 5.81287 12.3877 5.78681 12.1063 5.94837Z" fill="#297FFF"/>
</svg>
