<svg width="25" height="25" viewBox="0 0 25 25" fill="none" xmlns="http://www.w3.org/2000/svg">
<path d="M12.0615 0.0653095C11.6559 0.218525 11.3188 0.530062 11.05 1.00503C10.9963 1.10206 10.3074 2.5525 9.52068 4.22254C8.73402 5.89259 8.08416 7.26642 8.07927 7.27663C8.07439 7.28174 6.56945 7.51667 4.73226 7.79756C2.89996 8.07335 1.32174 8.32871 1.21913 8.36446C0.412914 8.63514 -0.0659283 9.29396 0.00736387 10.0294C0.0220223 10.1826 0.105087 10.4584 0.188151 10.6474C0.324963 10.964 0.471547 11.1223 1.96182 12.6494C2.85599 13.5584 3.97491 14.7127 4.45864 15.2081L5.33326 16.1069L4.75669 19.6002C4.10684 23.5583 4.10684 23.5736 4.39023 24.1711C4.71272 24.8606 5.38701 25.1415 6.17368 24.9321C6.35935 24.881 7.55645 24.2529 9.48648 23.1957L12.5061 21.5358L15.5209 23.1957C17.4509 24.258 18.6382 24.881 18.8288 24.9321C19.6155 25.1415 20.2897 24.8606 20.6122 24.1711C20.8956 23.5736 20.8956 23.5583 20.2458 19.6002L19.6692 16.1069L20.5194 15.2336C20.9885 14.7484 22.1123 13.5993 23.0162 12.6749C24.5309 11.1223 24.6775 10.964 24.8143 10.6474C25.0098 10.2133 25.0488 9.85064 24.9414 9.47271C24.7948 8.93135 24.2231 8.45128 23.5781 8.31339C23.4364 8.28274 21.8875 8.0376 20.1285 7.77203C18.3695 7.50135 16.9281 7.28174 16.9232 7.27152C16.9183 7.26642 16.2587 5.87216 15.4573 4.17147C14.656 2.47589 13.9475 0.994814 13.884 0.882456C13.7032 0.591347 13.3661 0.269596 13.1022 0.13681C12.7944 -0.0164051 12.3498 -0.0419407 12.0615 0.0653095ZM12.638 1.70471C12.6869 1.78642 13.4198 3.30836 14.2602 5.09076C15.1007 6.87316 15.8287 8.3951 15.8776 8.47171C15.9313 8.54321 16.0632 8.64024 16.1805 8.68621C16.2929 8.72707 17.9346 8.99775 19.8304 9.27864C21.7263 9.56464 23.3338 9.82511 23.412 9.85575L23.5488 9.91704L23.4364 10.0754C23.3729 10.1622 22.2149 11.3573 20.8565 12.7413C19.4982 14.1202 18.3402 15.3204 18.2815 15.4123C18.2034 15.5247 18.1692 15.6473 18.1692 15.8056C18.1692 15.9333 18.433 17.6391 18.7555 19.6002C19.078 21.5614 19.3418 23.2365 19.3418 23.3285C19.3418 23.4766 19.3321 23.4868 19.2099 23.451C19.1366 23.4357 17.788 22.7105 16.2147 21.8474C12.5012 19.8045 12.6674 19.8862 12.4573 19.9118C12.3449 19.922 11.1673 20.5399 9.10536 21.6737C7.36101 22.6339 5.87074 23.4357 5.79744 23.451C5.6704 23.4868 5.66063 23.4766 5.66063 23.3285C5.66063 23.2365 5.92448 21.5614 6.24697 19.6002C6.56945 17.6391 6.83331 15.9435 6.83331 15.826C6.83331 15.7086 6.80887 15.5605 6.77956 15.4941C6.75024 15.4226 5.61177 14.2377 4.24854 12.8537C2.89019 11.4696 1.70286 10.2439 1.6149 10.1264L1.44878 9.91704L1.59047 9.85575C1.66865 9.82511 1.89341 9.77404 2.09375 9.74339C2.51884 9.68211 7.18511 8.97221 8.13302 8.8241C8.48482 8.77303 8.84151 8.69132 8.92457 8.64535C9.00764 8.59939 9.12979 8.4666 9.1982 8.34403C9.26172 8.22656 9.97998 6.71484 10.796 4.98862C12.2325 1.92943 12.4133 1.56682 12.5012 1.56682C12.5257 1.56682 12.5843 1.6281 12.638 1.70471Z" fill="#297FFF"/>
</svg>
