<svg width="74" height="74" viewBox="0 0 74 74" fill="none" xmlns="http://www.w3.org/2000/svg">
<path d="M49.7312 0.253597C49.4501 0.405792 44.5883 3.20387 38.9417 6.45852L28.6559 12.3942H16.3083C6.97139 12.3942 3.87863 12.4293 3.64433 12.5347C3 12.8274 3 12.8039 3 19.4186C3 26.0333 3 26.0099 3.64433 26.3026C3.80834 26.3845 4.0895 26.4431 4.26522 26.4431C4.76897 26.4548 5.51873 26.8528 5.87018 27.3094C6.88939 28.6441 5.90533 30.6577 4.21836 30.6577C3.89034 30.6577 3.7029 30.7514 3.39831 31.0558L3 31.4538V37.6119C3 44.3086 3 44.2735 3.64433 44.5661C3.8552 44.6598 4.78068 44.7066 6.52622 44.7066H9.11524L8.79894 45.0813C8.54121 45.3857 8.49435 45.5379 8.54121 45.8774C8.6115 46.4042 14.3519 56.3555 14.8439 56.8004C15.1251 57.0579 15.3008 57.1282 15.5819 57.0931C15.7928 57.0697 20.432 54.4589 26.6409 50.8764L37.325 44.7066H41.0856C45.1507 44.7066 45.3381 44.6832 45.6193 44.0627C45.795 43.6764 45.795 43.3954 45.6193 43.0091C45.3147 42.33 46.5565 42.3651 25.0828 42.3651H5.34301V37.6354V32.9056L6.08105 32.5543C7.01825 32.1212 7.74459 31.3836 8.20147 30.4236C8.52949 29.7329 8.56464 29.5572 8.56464 28.5504C8.56464 27.5202 8.52949 27.368 8.17804 26.6538C7.70944 25.7055 6.74881 24.7806 5.91704 24.4879L5.34301 24.2772V19.5123V14.7357H32.9905H60.6379V19.524V24.3123L60.3216 24.3826C60.1342 24.4294 59.7242 24.6518 59.3844 24.8626C56.5025 26.7592 56.7954 31.0207 59.8882 32.5426L60.6379 32.9173V37.6354V42.3651H57.7678C54.6398 42.3651 54.3704 42.412 54.1009 43.0091C53.9252 43.3954 53.9252 43.6764 54.1009 44.0627C54.3821 44.6715 54.5813 44.7066 58.4707 44.7066C62.36 44.7066 62.5592 44.6715 62.8404 44.0627C62.9458 43.8403 62.9809 42.131 62.9809 37.6119V31.4538L62.5826 31.0558C62.278 30.7514 62.0906 30.6577 61.7626 30.6577C61.294 30.6577 60.5794 30.3416 60.2631 29.9904C59.1384 28.7611 59.8765 26.7123 61.5283 26.4899C62.2546 26.3845 62.6295 26.1972 62.8052 25.846C63.0629 25.366 63.0629 13.483 62.8169 12.9913C62.5241 12.441 62.2429 12.3942 59.443 12.3942H56.8423L57.1 12.16C57.4046 11.8791 57.5335 11.4576 57.428 11.0595C57.2992 10.5561 51.5002 0.639942 51.1488 0.300426C50.7153 -0.0859184 50.399 -0.0976257 49.7312 0.253597ZM52.4023 6.8917L54.7687 11.001L54.3704 11.563C54.1478 11.8791 53.9604 12.1834 53.9604 12.2654C53.9604 12.3591 51.2542 12.3942 43.6863 12.3942C37.3953 12.3942 33.4708 12.3473 33.5762 12.2771C34.1737 11.9142 49.9304 2.80581 49.9773 2.80581C50.0124 2.79411 51.1019 4.64388 52.4023 6.8917ZM32.229 44.9291C31.3269 45.5027 15.9685 54.3184 15.9451 54.2833C15.9217 54.2599 14.8439 52.4101 13.5552 50.1623L11.1888 46.0764L11.47 45.772C11.634 45.6081 11.8448 45.292 11.9503 45.0813L12.1494 44.7066H22.3649C32.4281 44.7066 32.5804 44.7183 32.229 44.9291Z" fill="#297FFF"/>
<path d="M11.4114 20.9289C11.0951 21.2099 11.0248 21.3503 11.0248 21.7601C11.0248 22.1699 11.0951 22.3104 11.4114 22.5913L11.7863 22.9308H19.5885C26.3129 22.9308 27.4258 22.9074 27.7187 22.7552C28.1287 22.5445 28.3044 22.2518 28.3044 21.7601C28.3044 21.2684 28.1287 20.9757 27.7187 20.765C27.4258 20.6128 26.3129 20.5894 19.5885 20.5894H11.7863L11.4114 20.9289Z" fill="#297FFF"/>
<path d="M32.2173 20.9874L31.819 21.3855V29.2529V37.1203L32.2173 37.5183C32.6507 37.9515 33.0373 38.0217 33.5645 37.7525C33.7402 37.6588 33.9394 37.4481 34.0214 37.2725C34.1268 37.05 34.162 34.9895 34.162 29.2529C34.162 23.5162 34.1268 21.4557 34.0214 21.2333C33.9394 21.0577 33.7402 20.847 33.5645 20.7533C33.0373 20.484 32.6507 20.5543 32.2173 20.9874Z" fill="#297FFF"/>
<path d="M37.9225 20.7533C37.3719 21.0577 37.1844 21.7367 37.489 22.3338C37.7702 22.8723 38.0748 22.9309 40.6638 22.9309H43.0654V26.2324C43.0654 29.2061 43.0888 29.5924 43.288 30.0139C43.5574 30.5875 44.1314 31.1846 44.7523 31.5124C45.2092 31.7583 45.3967 31.77 48.958 31.8051L52.6717 31.8402V33.4558C52.6717 34.9895 52.66 35.0832 52.4023 35.3173L52.1328 35.5749H45.1858C37.6648 35.5749 37.7585 35.5632 37.4656 36.2188C37.2899 36.6051 37.2899 36.8861 37.4656 37.2725C37.7585 37.9281 37.653 37.9164 45.2561 37.9164C49.6609 37.9164 52.4257 37.8695 52.6951 37.7993C53.4332 37.5886 54.2064 36.9798 54.593 36.2773L54.9561 35.6334L54.9913 32.8822C55.0147 31.2431 54.9796 29.768 54.8976 29.2295C54.2649 24.8743 50.8207 21.3972 46.4627 20.7065C45.2795 20.5309 38.2739 20.5543 37.9225 20.7533ZM47.0485 23.247C49.0869 23.8089 50.7973 25.2255 51.7931 27.1456C52.1562 27.8714 52.5545 28.9953 52.5545 29.3348C52.5545 29.4519 51.8985 29.487 49.1923 29.487C46.2402 29.487 45.8067 29.4636 45.6193 29.288C45.4201 29.1124 45.4084 28.8548 45.4084 26.0099V22.9075L45.9121 22.9894C46.1816 23.0245 46.697 23.1416 47.0485 23.247Z" fill="#297FFF"/>
<path d="M11.4114 25.6119C11.0951 25.8928 11.0248 26.0333 11.0248 26.4431C11.0248 26.8528 11.0951 26.9933 11.4114 27.2743L11.7863 27.6138H19.5885C26.3129 27.6138 27.4258 27.5904 27.7187 27.4382C28.1287 27.2275 28.3044 26.9348 28.3044 26.4431C28.3044 25.9514 28.1287 25.6587 27.7187 25.448C27.4258 25.2958 26.3129 25.2723 19.5885 25.2723H11.7863L11.4114 25.6119Z" fill="#297FFF"/>
<path d="M11.4114 30.2948L11.0248 30.6343V33.9358V37.2373L11.4114 37.5768L11.7863 37.9163H19.5885C27.9413 37.9163 27.871 37.9163 28.1873 37.3427C28.3513 37.0383 28.3513 30.8333 28.1873 30.5289C27.871 29.9553 27.9413 29.9553 19.5885 29.9553H11.7863L11.4114 30.2948ZM25.9614 33.9358V35.5748H19.6353H13.3092V33.9358V32.2968H19.6353H25.9614V33.9358Z" fill="#297FFF"/>
<path d="M49.2861 42.5291C48.2669 43.091 48.7003 44.7067 49.8601 44.7067C50.4576 44.7067 51.0316 44.133 51.0316 43.5476C51.0316 42.6696 50.0593 42.0959 49.2861 42.5291Z" fill="#297FFF"/>
<path d="M6.876 57.4C7.968 57.4 8.916 57.58 9.72 57.94C10.536 58.3 11.16 58.816 11.592 59.488C12.024 60.16 12.24 60.958 12.24 61.882C12.24 62.794 12.024 63.592 11.592 64.276C11.16 64.948 10.536 65.464 9.72 65.824C8.916 66.184 7.968 66.364 6.876 66.364H4.032V70H1.692V57.4H6.876ZM6.768 64.384C7.788 64.384 8.562 64.168 9.09 63.736C9.618 63.304 9.882 62.686 9.882 61.882C9.882 61.078 9.618 60.46 9.09 60.028C8.562 59.596 7.788 59.38 6.768 59.38H4.032V64.384H6.768ZM18.6456 70.126C17.6736 70.126 16.7976 69.916 16.0176 69.496C15.2376 69.076 14.6256 68.494 14.1816 67.75C13.7496 66.994 13.5336 66.142 13.5336 65.194C13.5336 64.246 13.7496 63.4 14.1816 62.656C14.6256 61.912 15.2376 61.33 16.0176 60.91C16.7976 60.49 17.6736 60.28 18.6456 60.28C19.6296 60.28 20.5116 60.49 21.2916 60.91C22.0716 61.33 22.6776 61.912 23.1096 62.656C23.5536 63.4 23.7756 64.246 23.7756 65.194C23.7756 66.142 23.5536 66.994 23.1096 67.75C22.6776 68.494 22.0716 69.076 21.2916 69.496C20.5116 69.916 19.6296 70.126 18.6456 70.126ZM18.6456 68.2C19.4736 68.2 20.1576 67.924 20.6976 67.372C21.2376 66.82 21.5076 66.094 21.5076 65.194C21.5076 64.294 21.2376 63.568 20.6976 63.016C20.1576 62.464 19.4736 62.188 18.6456 62.188C17.8176 62.188 17.1336 62.464 16.5936 63.016C16.0656 63.568 15.8016 64.294 15.8016 65.194C15.8016 66.094 16.0656 66.82 16.5936 67.372C17.1336 67.924 17.8176 68.2 18.6456 68.2ZM34.9632 65.248C34.9632 65.404 34.9512 65.626 34.9272 65.914H27.3852C27.5172 66.622 27.8592 67.186 28.4112 67.606C28.9752 68.014 29.6712 68.218 30.4992 68.218C31.5552 68.218 32.4252 67.87 33.1092 67.174L34.3152 68.56C33.8832 69.076 33.3372 69.466 32.6772 69.73C32.0172 69.994 31.2732 70.126 30.4452 70.126C29.3892 70.126 28.4592 69.916 27.6552 69.496C26.8512 69.076 26.2272 68.494 25.7832 67.75C25.3512 66.994 25.1352 66.142 25.1352 65.194C25.1352 64.258 25.3452 63.418 25.7652 62.674C26.1972 61.918 26.7912 61.33 27.5472 60.91C28.3032 60.49 29.1552 60.28 30.1032 60.28C31.0392 60.28 31.8732 60.49 32.6052 60.91C33.3492 61.318 33.9252 61.9 34.3332 62.656C34.7532 63.4 34.9632 64.264 34.9632 65.248ZM30.1032 62.08C29.3832 62.08 28.7712 62.296 28.2672 62.728C27.7752 63.148 27.4752 63.712 27.3672 64.42H32.8212C32.7252 63.724 32.4312 63.16 31.9392 62.728C31.4472 62.296 30.8352 62.08 30.1032 62.08ZM44.5425 68.2V70H36.2445V68.578L41.5185 62.188H36.3525V60.388H44.3985V61.81L39.1065 68.2H44.5425ZM55.89 56.644V70H53.73V68.758C53.358 69.214 52.896 69.556 52.344 69.784C51.804 70.012 51.204 70.126 50.544 70.126C49.62 70.126 48.786 69.922 48.042 69.514C47.31 69.106 46.734 68.53 46.314 67.786C45.894 67.03 45.684 66.166 45.684 65.194C45.684 64.222 45.894 63.364 46.314 62.62C46.734 61.876 47.31 61.3 48.042 60.892C48.786 60.484 49.62 60.28 50.544 60.28C51.18 60.28 51.762 60.388 52.29 60.604C52.818 60.82 53.268 61.144 53.64 61.576V56.644H55.89ZM50.814 68.2C51.354 68.2 51.84 68.08 52.272 67.84C52.704 67.588 53.046 67.234 53.298 66.778C53.55 66.322 53.676 65.794 53.676 65.194C53.676 64.594 53.55 64.066 53.298 63.61C53.046 63.154 52.704 62.806 52.272 62.566C51.84 62.314 51.354 62.188 50.814 62.188C50.274 62.188 49.788 62.314 49.356 62.566C48.924 62.806 48.582 63.154 48.33 63.61C48.078 64.066 47.952 64.594 47.952 65.194C47.952 65.794 48.078 66.322 48.33 66.778C48.582 67.234 48.924 67.588 49.356 67.84C49.788 68.08 50.274 68.2 50.814 68.2ZM62.5054 60.28C63.9214 60.28 65.0014 60.622 65.7454 61.306C66.5014 61.978 66.8794 62.998 66.8794 64.366V70H64.7554V68.83C64.4794 69.25 64.0834 69.574 63.5674 69.802C63.0634 70.018 62.4514 70.126 61.7314 70.126C61.0114 70.126 60.3814 70.006 59.8414 69.766C59.3014 69.514 58.8814 69.172 58.5814 68.74C58.2934 68.296 58.1494 67.798 58.1494 67.246C58.1494 66.382 58.4674 65.692 59.1034 65.176C59.7514 64.648 60.7654 64.384 62.1454 64.384H64.6294V64.24C64.6294 63.568 64.4254 63.052 64.0174 62.692C63.6214 62.332 63.0274 62.152 62.2354 62.152C61.6954 62.152 61.1614 62.236 60.6334 62.404C60.1174 62.572 59.6794 62.806 59.3194 63.106L58.4374 61.468C58.9414 61.084 59.5474 60.79 60.2554 60.586C60.9634 60.382 61.7134 60.28 62.5054 60.28ZM62.1994 68.488C62.7634 68.488 63.2614 68.362 63.6934 68.11C64.1374 67.846 64.4494 67.474 64.6294 66.994V65.878H62.3074C61.0114 65.878 60.3634 66.304 60.3634 67.156C60.3634 67.564 60.5254 67.888 60.8494 68.128C61.1734 68.368 61.6234 68.488 62.1994 68.488Z" fill="#14233D"/>
</svg>
